<?xml version="1.0" standalone="no"?>
<!DOCTYPE svg PUBLIC "-//W3C//DTD SVG 20010904//EN"
 "http://www.w3.org/TR/2001/REC-SVG-20010904/DTD/svg10.dtd">
<svg version="1.0" xmlns="http://www.w3.org/2000/svg"
 width="1399.000000pt" height="1399.000000pt" viewBox="0 0 1399.000000 1399.000000"
 preserveAspectRatio="xMidYMid meet">
<metadata>
Created by potrace 1.14, written by Peter Selinger 2001-2017
</metadata>
<g transform="translate(0.000000,1399.000000) scale(0.100000,-0.100000)"
fill="#000000" stroke="none">
<path d="M6687 12508 c-7 -4 -37 -8 -68 -8 -43 0 -60 -5 -75 -21 -87 -94 -77
-90 -224 -95 -72 -2 -156 -17 -201 -37 -26 -12 -85 -18 -215 -22 -122 -5 -186
-11 -200 -20 -11 -7 -42 -16 -68 -20 -35 -6 -60 -18 -93 -47 -25 -21 -73 -53
-107 -69 -33 -17 -76 -45 -94 -62 -24 -23 -46 -33 -85 -38 -107 -15 -188 -37
-210 -56 -12 -11 -47 -25 -78 -32 -48 -10 -67 -22 -131 -81 -42 -38 -83 -86
-93 -107 -25 -53 -126 -161 -193 -206 -57 -39 -102 -90 -102 -115 0 -8 -12
-34 -27 -58 -21 -33 -36 -46 -60 -50 -44 -8 -65 -34 -129 -160 -39 -77 -58
-128 -65 -172 -5 -34 -17 -74 -26 -88 -9 -14 -21 -51 -26 -83 -5 -31 -12 -76
-16 -101 -4 -25 -20 -64 -36 -88 l-28 -43 6 -139 c4 -96 11 -148 21 -169 13
-24 17 -82 22 -283 7 -321 17 -462 31 -480 7 -8 15 -34 19 -58 3 -25 17 -83
30 -130 13 -46 24 -95 24 -109 0 -50 33 -153 66 -209 36 -60 60 -89 68 -81 2
2 7 51 11 107 3 57 10 114 15 127 5 13 9 50 10 82 1 110 5 183 10 183 3 0 4
39 4 88 -1 48 2 89 6 92 12 8 24 60 13 60 -12 0 -16 69 -5 84 6 6 13 27 17 46
3 19 14 58 23 85 9 28 17 52 17 55 1 3 11 25 22 50 12 25 27 62 34 83 7 20 17
37 21 37 4 0 8 8 8 18 1 9 10 28 20 41 17 19 23 21 35 11 8 -7 15 -9 16 -4 4
61 13 75 101 167 37 39 68 45 68 12 0 -18 16 -20 23 -2 4 9 8 8 16 -3 9 -13
11 -12 11 4 0 15 3 16 15 6 12 -10 20 -8 41 9 15 12 32 21 40 21 7 0 14 3 16
8 2 4 17 15 33 24 17 9 32 24 34 34 2 10 21 34 43 55 26 24 36 39 28 44 -8 5
-6 11 6 19 13 10 27 10 57 3 28 -7 45 -7 58 1 10 7 28 12 39 12 11 0 34 14 50
30 17 17 35 28 40 25 6 -3 10 -1 10 4 0 7 24 9 73 4 115 -10 243 -3 292 17 11
4 40 14 65 21 25 7 52 14 60 17 8 2 47 6 85 8 39 2 97 5 130 7 33 2 69 -1 80
-6 13 -7 20 -6 23 1 2 6 14 8 28 6 13 -2 24 0 24 6 0 5 9 10 20 10 11 0 20 -7
20 -15 0 -12 4 -13 19 -5 28 14 67 12 101 -5 17 -9 30 -12 30 -7 0 4 40 6 89
4 65 -3 102 0 138 12 38 13 60 14 98 7 27 -5 53 -7 58 -4 5 3 16 -2 26 -11 13
-12 25 -14 47 -7 18 5 38 5 47 -1 13 -7 17 -5 17 9 0 13 3 14 12 5 7 -7 27
-12 44 -12 18 0 36 -5 39 -11 4 -6 13 -8 20 -5 7 2 21 -1 31 -8 11 -7 27 -12
36 -11 10 2 15 -2 12 -10 -6 -14 28 -24 85 -24 22 0 38 -6 47 -20 13 -18 17
-18 42 -5 15 7 39 14 55 14 21 0 27 5 27 21 0 17 4 20 24 15 14 -3 28 -2 31 4
3 5 16 10 27 10 11 0 26 6 32 14 6 8 36 23 67 33 55 18 55 18 77 -2 25 -23 65
-26 99 -7 32 18 93 16 93 -3 0 -8 7 -15 15 -15 8 0 15 -6 15 -13 0 -8 11 -20
25 -27 31 -17 33 -34 3 -25 -13 4 -31 9 -40 11 -12 4 -18 0 -18 -10 0 -9 8
-16 18 -16 46 -2 138 -53 126 -71 -2 -4 5 -5 16 -2 11 3 20 0 20 -6 0 -6 6
-11 14 -11 9 0 12 -11 10 -39 -3 -33 1 -42 22 -56 15 -10 23 -22 20 -31 -3 -8
1 -14 10 -14 12 0 13 -4 3 -21 -9 -18 -7 -25 22 -51 28 -26 31 -33 21 -49 -17
-27 -15 -84 3 -99 12 -10 13 -15 4 -21 -9 -5 -6 -15 10 -34 11 -15 21 -32 21
-38 0 -5 8 -17 18 -26 25 -22 34 -49 18 -58 -21 -13 -26 -41 -10 -54 9 -7 14
-23 11 -36 -2 -12 1 -24 7 -26 8 -3 7 -10 -1 -25 -11 -18 -10 -20 1 -16 16 6
29 -25 20 -49 -3 -9 -12 -13 -19 -11 -12 5 -14 -26 -6 -92 0 -6 16 -14 34 -18
25 -5 29 -9 17 -16 -10 -7 -11 -10 -2 -11 6 -1 18 -2 25 -3 6 -1 11 -12 9 -25
-2 -20 1 -23 23 -19 31 6 33 -5 3 -21 l-23 -11 24 6 c15 4 21 2 17 -4 -4 -6 1
-20 11 -31 9 -12 18 -38 19 -58 0 -20 6 -39 13 -41 6 -2 9 -7 6 -12 -3 -5 3
-11 14 -15 11 -3 26 -19 33 -35 7 -17 19 -30 27 -30 7 0 21 -9 30 -19 9 -11
26 -19 36 -18 15 2 20 -4 20 -23 0 -18 6 -26 21 -28 21 -3 82 -61 67 -63 -5 0
2 -4 13 -9 18 -7 22 -17 22 -64 0 -31 -5 -56 -10 -56 -7 0 -6 -5 1 -13 6 -8 9
-17 6 -20 -3 -4 -2 -5 2 -2 3 3 12 0 20 -7 11 -9 11 -14 -3 -29 -10 -11 -12
-19 -7 -19 14 0 23 -30 32 -107 4 -41 3 -61 -4 -60 -5 1 -10 -11 -11 -28 0
-17 -6 -29 -12 -28 -7 2 -12 -6 -12 -17 0 -11 5 -20 11 -20 5 0 7 -5 3 -12 -4
-6 0 -16 9 -23 15 -11 14 -13 -6 -22 -32 -16 -125 -50 -174 -65 -24 -7 -43
-16 -43 -20 0 -4 -12 -3 -26 2 -33 13 -34 13 -34 -5 0 -20 -5 -19 -48 10 -41
28 -85 34 -76 11 4 -10 -1 -15 -13 -15 -10 0 -31 -3 -47 -7 -21 -5 -27 -4 -22
5 4 6 14 11 22 11 9 0 22 7 30 15 14 13 14 15 0 15 -9 0 -16 -4 -16 -10 0 -12
-47 -12 -75 0 -19 8 -19 9 3 9 16 1 22 6 20 17 -2 8 -7 14 -11 12 -5 -2 -15 8
-22 22 -12 22 -11 26 13 47 15 13 35 26 45 29 9 3 17 10 17 15 0 6 -5 7 -11 3
-9 -5 -10 1 -5 20 6 23 3 29 -14 33 -23 6 -26 19 -7 26 8 4 3 14 -15 31 -16
14 -28 28 -28 31 0 11 -58 65 -69 65 -6 0 -11 7 -11 15 0 9 -11 21 -25 27 -14
6 -25 15 -25 19 0 4 -9 5 -20 2 -11 -3 -20 0 -20 6 0 6 -8 11 -18 11 -10 0
-24 6 -31 13 -10 10 -11 8 -5 -7 6 -16 4 -17 -13 -8 -11 6 -25 18 -33 26 -7 9
-19 16 -26 16 -8 0 -14 5 -14 11 0 6 -11 8 -28 5 -29 -7 -109 17 -179 52 -22
12 -44 17 -49 13 -9 -8 -88 0 -146 14 -18 5 -28 3 -28 -4 0 -6 5 -11 11 -11 5
0 7 -4 4 -10 -3 -5 -20 -10 -36 -10 -16 0 -43 -10 -59 -21 -17 -13 -37 -20
-49 -16 -12 3 -23 2 -26 -3 -2 -4 -28 -10 -57 -14 -29 -4 -63 -13 -74 -21 -19
-12 -135 -21 -184 -14 -8 1 -39 1 -69 1 -41 -2 -52 -5 -48 -16 3 -8 -1 -20 -9
-26 -11 -10 -14 -9 -14 4 0 9 -2 16 -4 16 -14 0 -74 -26 -88 -37 -9 -8 -25
-12 -36 -9 -25 8 -82 -46 -82 -77 0 -12 -13 -37 -30 -55 -17 -19 -30 -44 -30
-60 0 -14 -5 -52 -12 -84 -10 -49 -15 -57 -30 -52 -19 6 -22 -2 -18 -43 1 -13
-3 -23 -9 -23 -6 0 -11 7 -11 15 0 8 -5 15 -10 15 -6 0 -8 -11 -4 -25 6 -25
-10 -36 -19 -12 -3 7 -6 5 -6 -5 -1 -10 3 -18 8 -18 5 0 25 -7 46 -15 27 -12
34 -19 26 -28 -5 -7 -8 -23 -4 -35 4 -16 -4 -30 -29 -54 -69 -66 -102 -86
-235 -139 -221 -88 -315 -103 -483 -79 -84 12 -100 20 -104 52 -1 3 -4 9 -7
12 -3 4 -4 23 -2 42 3 31 -1 40 -34 70 -20 19 -42 34 -49 34 -18 0 -94 88 -94
109 0 27 -67 91 -95 91 -12 0 -30 9 -40 20 -10 11 -30 20 -45 20 -14 0 -35 7
-46 15 -10 8 -28 14 -39 14 -19 0 -18 -1 3 -12 12 -7 19 -16 16 -20 -4 -4 -3
-7 3 -7 5 0 10 -7 10 -15 0 -8 -3 -15 -6 -15 -14 0 -51 32 -51 44 0 16 -22 26
-56 26 -25 0 -32 -14 -13 -26 20 -12 -13 -24 -71 -25 -142 -4 -183 -1 -190 11
-5 7 -25 14 -47 16 -21 1 -38 3 -38 4 0 1 -9 4 -20 7 -64 16 -73 15 -106 -14
-48 -40 -82 -58 -87 -45 -4 12 -113 -43 -125 -64 -4 -8 -14 -14 -21 -14 -20 0
-26 -23 -26 -104 0 -40 -7 -95 -15 -122 -8 -27 -15 -64 -15 -82 0 -33 -2 -34
-122 -91 -168 -79 -181 -85 -275 -116 -104 -34 -133 -63 -133 -137 0 -60 21
-99 73 -135 43 -30 43 -29 139 -283 101 -266 138 -339 206 -409 46 -47 68 -61
116 -75 126 -37 303 -35 631 4 221 27 319 46 498 94 66 18 167 65 167 78 0 4
8 8 18 8 15 0 25 21 50 103 35 116 85 313 102 402 28 157 53 204 124 236 50
23 85 24 134 3 56 -23 90 -61 134 -149 47 -94 137 -243 198 -333 63 -91 112
-144 164 -177 25 -16 46 -33 46 -38 0 -4 4 -6 9 -3 5 3 20 -5 34 -18 25 -23
67 -43 67 -32 0 3 -12 11 -26 19 -24 12 -24 14 -8 28 13 11 67 16 228 21 494
15 895 76 1063 162 129 65 155 157 172 598 8 228 13 246 77 291 31 22 56 30
105 34 35 3 70 10 77 16 7 5 36 12 65 14 28 2 86 15 127 29 122 40 133 43 178
50 39 6 42 5 43 -17 1 -13 1 -28 0 -32 -1 -4 6 -10 14 -13 8 -4 15 -13 15 -21
0 -8 -4 -11 -10 -8 -6 3 -8 -16 -7 -50 2 -41 8 -59 23 -70 10 -8 14 -15 7 -15
-7 0 -11 -18 -11 -47 1 -59 -9 -94 -26 -87 -9 3 -13 -6 -13 -33 0 -71 -3 -83
-18 -83 -8 0 -15 -5 -15 -10 0 -6 7 -10 16 -8 10 2 19 -3 21 -9 3 -7 -2 -13
-10 -13 -10 0 -14 -7 -10 -22 4 -18 2 -20 -6 -8 -15 22 -26 4 -26 -43 0 -40
-2 -42 -27 -40 -16 1 -28 -3 -28 -8 0 -6 -5 -7 -10 -4 -6 4 -7 12 -4 18 4 7 3
8 -2 4 -5 -5 -9 -12 -9 -15 -1 -4 -9 -23 -18 -43 -16 -33 -36 -41 -67 -29 -3
1 -12 2 -20 1 -8 0 -22 4 -30 9 -13 9 -12 12 4 25 11 8 14 15 8 15 -15 0 -54
-21 -64 -35 -5 -6 -8 -4 -8 5 -1 12 -3 11 -11 -3 -7 -13 -7 -22 0 -31 7 -9 7
-16 -2 -25 -9 -10 -9 -11 3 -6 11 4 15 -2 15 -19 0 -13 -4 -22 -9 -19 -11 8 4
-41 16 -48 6 -4 6 -9 -1 -13 -15 -10 -14 -56 2 -56 8 0 12 -16 12 -50 0 -50
-7 -58 -47 -51 -5 0 -8 -4 -8 -9 0 -9 20 -14 47 -11 6 1 15 -4 19 -10 5 -8 -1
-10 -20 -7 -17 3 -26 1 -26 -7 0 -7 -7 -15 -15 -19 -18 -7 -21 -66 -2 -66 6 0
12 -13 13 -30 1 -23 -3 -30 -17 -30 -10 0 -21 -5 -25 -12 -5 -8 0 -9 14 -6 12
4 22 2 22 -3 0 -5 -9 -9 -21 -9 -12 0 -17 -4 -13 -11 4 -7 0 -9 -14 -5 -15 5
-21 1 -24 -18 -4 -17 -1 -23 9 -19 7 3 13 9 13 14 0 4 6 6 14 3 12 -4 13 -12
5 -32 -5 -14 -6 -28 -2 -31 5 -3 8 -13 7 -21 0 -8 -2 -28 -3 -45 -2 -16 -5
-24 -8 -17 -8 21 -18 13 -20 -16 -1 -15 6 -36 15 -46 10 -11 12 -16 6 -13 -7
4 -14 0 -17 -8 -4 -9 -1 -12 7 -9 7 3 13 -2 13 -11 0 -8 -9 -15 -19 -15 -10 0
-18 -4 -18 -10 0 -5 6 -7 14 -4 8 3 17 0 21 -6 4 -7 -2 -14 -14 -17 -17 -4
-19 -8 -10 -19 9 -11 9 -17 0 -28 -6 -8 -11 -18 -10 -22 1 -5 0 -13 -1 -19 -1
-5 -3 -21 -5 -35 -1 -14 -3 -31 -3 -37 -1 -7 -10 -13 -19 -14 -12 0 -13 -2 -5
-6 9 -3 3 -14 -18 -34 -17 -17 -28 -34 -25 -39 11 -18 -8 -62 -30 -70 -17 -7
-22 -14 -18 -29 4 -16 1 -21 -13 -21 -16 0 -17 -2 -4 -10 13 -8 12 -10 -2 -10
-21 0 -24 -16 -5 -24 8 -4 5 -10 -10 -22 -15 -11 -23 -27 -23 -46 0 -16 -5
-39 -11 -51 -7 -12 -12 -34 -11 -49 0 -18 -4 -28 -14 -28 -8 0 -17 -13 -21
-31 -4 -24 -10 -29 -24 -26 -11 3 -17 2 -15 -2 2 -3 -4 -30 -14 -59 -11 -29
-16 -60 -13 -68 4 -10 0 -12 -11 -8 -13 5 -16 -1 -17 -27 -2 -49 -3 -53 -14
-59 -5 -3 -11 5 -13 18 -2 12 -8 22 -13 22 -13 0 -11 -34 4 -49 10 -10 7 -11
-14 -6 -16 4 -30 2 -33 -4 -4 -6 -16 -11 -26 -11 -15 0 -19 -6 -17 -22 2 -19
-2 -22 -21 -20 -20 3 -22 0 -16 -22 4 -16 2 -26 -5 -26 -20 0 -12 -36 15 -65
20 -21 24 -35 21 -61 -3 -19 0 -37 5 -40 12 -8 -26 -44 -47 -44 -9 0 -21 13
-26 30 -6 16 -15 30 -20 30 -15 0 -10 -30 10 -58 23 -34 34 -79 21 -87 -5 -3
-10 3 -10 14 0 20 -17 37 -27 27 -3 -3 -6 -20 -5 -37 1 -24 -3 -29 -15 -25
-12 5 -14 1 -9 -19 4 -14 2 -25 -4 -25 -5 0 -10 -7 -10 -16 0 -8 -5 -12 -11
-9 -5 4 -24 1 -40 -6 -27 -11 -30 -16 -27 -48 2 -27 -1 -36 -12 -36 -9 0 -15
-9 -15 -22 0 -12 -4 -25 -7 -29 -9 -8 -68 18 -68 30 0 6 -6 1 -14 -9 -14 -19
-15 -19 -34 -2 -11 10 -26 15 -36 11 -12 -4 -16 -1 -16 15 0 24 -10 27 -28 9
-10 -10 -15 -10 -22 2 -5 7 -24 14 -42 14 -24 1 -33 6 -33 18 0 10 -6 23 -13
30 -14 14 -16 32 -3 23 14 -8 5 30 -15 64 -17 29 -17 30 7 50 l24 19 -22 24
c-13 13 -23 34 -23 46 0 17 -6 22 -25 22 -32 0 -44 -26 -20 -44 10 -7 15 -18
11 -24 -4 -6 -2 -29 4 -51 7 -25 7 -48 1 -64 -8 -19 -6 -29 9 -44 21 -24 10
-53 -21 -53 -11 0 -18 -4 -14 -9 3 -5 -5 -17 -17 -26 -20 -13 -23 -24 -23 -81
0 -64 0 -65 -24 -59 -19 5 -22 3 -14 -7 11 -14 9 -48 -4 -57 -5 -3 -17 -19
-26 -34 -11 -16 -24 -26 -32 -23 -7 2 -16 -1 -18 -8 -4 -9 -15 -12 -32 -8 -17
3 -24 9 -21 18 3 7 1 16 -4 19 -6 4 -10 1 -10 -6 0 -7 -3 -9 -7 -6 -11 11 -31
-60 -25 -89 4 -24 3 -25 -19 -13 -67 34 -69 35 -69 13 0 -11 -6 -14 -20 -9
-14 4 -20 2 -20 -8 0 -8 -9 -24 -20 -37 -11 -13 -20 -18 -20 -12 0 7 -7 12
-15 12 -8 0 -15 4 -15 9 0 5 -13 11 -30 13 -26 4 -30 1 -30 -19 0 -13 -4 -23
-10 -23 -5 0 -10 7 -10 15 0 8 -9 19 -19 25 -25 13 -31 13 -31 -2 -1 -28 -40
-60 -65 -56 -24 5 -25 4 -18 -35 4 -30 3 -38 -6 -33 -7 5 -10 14 -7 22 4 11 2
12 -14 4 -10 -5 -29 -10 -41 -10 -12 0 -28 -8 -35 -17 -13 -17 -15 -17 -25 -1
-12 21 -31 24 -27 6 1 -7 -3 -23 -10 -34 -10 -19 -19 -21 -64 -19 -48 3 -55 7
-90 47 -33 38 -37 40 -38 21 0 -13 -4 -23 -8 -23 -14 0 -33 48 -22 55 16 10
11 45 -5 45 -8 0 -17 -1 -20 -2 -3 -2 -17 16 -31 40 -26 44 -44 54 -44 25 0
-14 -2 -15 -9 -4 -10 15 -32 6 -30 -12 3 -26 -2 -35 -21 -40 -12 -3 -20 -14
-20 -25 0 -22 -47 -65 -61 -56 -5 3 -9 14 -9 24 0 16 -42 70 -55 70 -3 0 0
-11 5 -25 6 -15 6 -26 0 -30 -6 -4 -10 3 -10 14 0 12 -4 21 -10 21 -5 0 -10
-13 -10 -30 0 -30 -24 -43 -33 -17 -2 6 -8 0 -12 -15 -5 -21 -13 -28 -32 -28
-13 0 -22 -4 -19 -8 2 -4 0 -14 -5 -22 -8 -13 -10 -13 -18 0 -5 8 -7 18 -4 24
12 18 8 79 -4 83 -8 3 -13 -4 -13 -16 0 -25 -13 -27 -30 -6 -10 12 -16 13 -26
4 -11 -9 -14 -8 -14 5 0 9 5 16 10 16 6 0 10 5 10 11 0 11 -25 8 -65 -7 -14
-6 -16 -3 -10 16 6 20 4 22 -14 17 -14 -3 -24 0 -28 9 -3 8 -13 14 -23 14 -19
0 -34 -26 -24 -41 5 -9 -43 -59 -57 -59 -10 0 -16 81 -9 110 8 31 -10 70 -32
70 -28 0 -47 11 -42 25 6 14 -42 16 -64 1 -17 -10 -26 -1 -19 18 4 9 14 12 26
9 12 -3 21 -1 21 5 0 11 -33 22 -67 22 -31 0 -29 24 2 38 30 14 34 36 5 27
-16 -5 -19 -3 -13 12 4 10 13 24 20 31 17 17 16 27 -2 42 -9 8 -15 8 -15 2 0
-6 6 -12 12 -14 7 -3 2 -7 -10 -10 -12 -4 -22 -3 -22 1 0 4 -19 7 -42 6 -38 0
-43 -3 -46 -25 -2 -14 -8 -29 -13 -34 -5 -6 -9 -19 -9 -30 0 -16 -7 -21 -30
-23 -17 -1 -30 3 -30 9 0 6 -7 16 -16 23 -13 9 -14 16 -5 33 10 19 7 25 -18
47 -23 21 -28 33 -26 61 2 19 -1 34 -6 34 -5 0 -9 -6 -10 -12 0 -7 -7 5 -15
26 -9 25 -11 43 -5 49 5 5 7 17 3 26 -5 13 -3 14 10 3 13 -10 17 -10 21 1 3 8
1 20 -4 28 -7 11 -11 11 -17 1 -14 -21 -42 -3 -42 27 0 15 3 31 7 35 4 3 7 15
8 25 1 13 -4 17 -16 14 -11 -3 -19 3 -24 19 -11 40 -28 68 -41 68 -7 0 -15 18
-19 40 -4 22 -13 44 -21 48 -8 5 -19 21 -23 38 -5 16 -10 21 -10 12 -1 -26
-21 -22 -21 4 0 12 -8 31 -19 42 -10 12 -28 49 -40 84 -12 34 -25 70 -31 80
-5 9 -16 43 -25 75 -17 61 -34 70 -46 25 -7 -28 17 -118 32 -118 12 0 11 -47
-1 -70 -9 -17 11 -95 45 -175 36 -85 65 -165 65 -182 0 -10 9 -33 20 -51 11
-18 20 -45 20 -60 0 -34 46 -165 75 -212 12 -19 38 -64 57 -100 19 -36 67
-117 105 -180 39 -63 76 -132 82 -152 7 -21 30 -55 51 -77 21 -21 50 -61 64
-88 27 -54 64 -90 143 -141 29 -19 55 -42 58 -53 9 -27 57 -58 63 -41 2 8 19
-9 39 -37 20 -28 39 -51 43 -51 13 0 -6 -63 -31 -103 -13 -21 -37 -52 -52 -70
-16 -18 -37 -50 -47 -72 -22 -49 -146 -180 -184 -195 -15 -5 -39 -10 -54 -10
-35 0 -142 -34 -208 -64 -28 -14 -102 -41 -165 -61 -63 -20 -136 -45 -164 -57
-27 -11 -84 -32 -126 -48 -84 -30 -169 -70 -169 -79 0 -3 -19 -7 -42 -9 -23
-1 -55 -9 -72 -17 -17 -7 -46 -17 -65 -20 -38 -8 -166 -74 -221 -114 -19 -14
-56 -45 -82 -68 -26 -24 -52 -43 -57 -43 -16 0 -240 -229 -268 -274 -14 -23
-33 -50 -43 -61 -10 -11 -26 -34 -37 -51 -10 -18 -33 -56 -50 -87 -18 -30 -33
-62 -33 -72 0 -9 -14 -34 -30 -55 -17 -21 -37 -56 -46 -77 -20 -49 -83 -184
-95 -203 -30 -48 -77 -165 -125 -309 -30 -89 -74 -204 -98 -255 -24 -50 -54
-118 -67 -151 -22 -59 -77 -175 -115 -245 -30 -54 -58 -141 -48 -149 106 -90
526 -364 759 -495 964 -544 1997 -841 3109 -896 304 -15 344 -14 349 7 4 17 5
17 6 0 1 -16 14 -17 184 -12 421 14 822 59 1178 135 52 11 103 21 114 23 77
14 176 41 181 48 3 5 9 7 13 4 18 -11 562 148 569 166 2 5 8 7 13 3 5 -3 9 3
9 13 0 13 3 14 8 6 12 -18 135 24 128 43 -7 19 11 28 21 10 7 -12 13 -12 41 0
23 9 31 18 26 26 -6 10 -5 10 7 1 11 -9 25 -7 64 10 28 11 52 23 55 27 3 3 13
6 23 8 34 6 235 95 432 193 423 209 832 463 1189 742 581 453 1098 999 1464
1546 l110 165 -25 19 c-13 11 -27 17 -30 14 -3 -4 -20 5 -38 19 -18 13 -39 22
-48 18 -8 -3 -34 6 -57 21 -40 25 -43 26 -61 9 -18 -16 -22 -16 -71 7 -28 13
-53 23 -55 21 -2 -1 -16 4 -32 12 -16 9 -31 13 -34 10 -3 -3 -11 -3 -17 1 -8
5 -8 10 0 20 16 19 -11 26 -32 8 -14 -13 -22 -12 -67 8 -42 17 -54 19 -66 9
-21 -18 -101 16 -85 35 8 10 3 16 -19 23 -18 7 -33 7 -36 2 -3 -5 -29 0 -57
11 -41 16 -56 18 -72 9 -17 -8 -34 -5 -85 15 -35 15 -70 24 -77 21 -22 -8 -64
15 -115 62 -79 73 -119 88 -245 91 -60 1 -110 6 -112 12 -2 5 -35 9 -74 9 -55
0 -76 4 -99 21 -16 11 -39 19 -52 16 -18 -4 -17 -4 6 -6 16 0 26 -5 22 -11 -8
-13 -51 5 -47 20 3 15 -23 40 -42 40 -9 0 -16 5 -16 10 0 6 -6 10 -14 10 -8 0
-40 14 -71 30 -32 17 -53 24 -46 17 17 -21 2 -28 -23 -11 -13 8 -26 11 -31 7
-4 -5 -5 -2 -1 5 4 6 3 12 -1 12 -5 0 -18 7 -29 16 -17 14 -17 15 -1 10 11 -3
16 -2 12 4 -3 6 -17 10 -31 10 -13 0 -24 5 -24 10 0 6 -8 10 -17 10 -15 0 -16
-2 -3 -10 8 -5 10 -10 4 -10 -6 0 -19 10 -28 22 -9 13 -14 17 -11 10 3 -6 1
-12 -4 -12 -6 0 -11 5 -11 10 0 6 -6 10 -13 10 -7 0 -19 9 -27 20 -8 11 -21
20 -29 20 -8 0 -31 15 -50 33 -20 17 -29 23 -21 12 11 -15 8 -14 -7 3 -13 13
-23 29 -23 36 0 8 -16 27 -36 42 -20 16 -43 35 -50 41 -7 7 -18 13 -24 13 -6
0 -30 13 -53 29 -44 30 -58 31 -174 17 -35 -5 -53 -3 -53 4 0 5 -5 10 -11 10
-6 0 -32 23 -59 50 -29 30 -58 50 -70 50 -12 0 -35 14 -50 30 -15 17 -37 30
-48 30 -24 0 -68 57 -64 82 2 10 -3 18 -11 18 -8 0 -34 29 -57 65 -24 37 -48
64 -55 61 -7 -2 -33 32 -61 79 -27 46 -52 81 -56 79 -3 -2 -19 17 -34 43 -15
27 -33 53 -40 60 -14 14 -107 193 -100 193 3 0 0 13 -5 30 -6 16 -14 29 -17
29 -22 -3 -32 3 -32 20 0 11 -5 23 -11 27 -13 8 -3 -34 14 -54 5 -7 7 -15 4
-18 -3 -3 -29 40 -58 97 -28 57 -58 115 -67 129 -16 25 -16 25 4 7 24 -20 41
-23 27 -4 -30 38 -73 268 -80 429 -4 82 -10 125 -16 121 -21 -13 12 361 40
452 5 17 4 18 -10 7 -13 -11 -12 2 8 75 60 223 142 391 322 660 69 103 142
212 161 243 l35 55 -37 -35 -38 -35 43 70 c115 190 218 451 254 645 19 98 25
296 12 362 -9 45 -28 42 -47 -7 -8 -19 -20 -35 -28 -35 -13 0 -12 3 1 18 10
10 17 26 17 35 0 9 4 17 9 17 5 0 11 19 15 42 4 23 17 69 31 102 29 77 42 229
24 301 -22 92 -54 105 -133 55 -26 -17 -50 -28 -54 -26 -4 2 -27 -13 -52 -35
-24 -21 -48 -39 -52 -39 -4 0 -5 -6 -2 -14 6 -15 -68 -115 -145 -195 -40 -42
-59 -54 -81 -54 -36 0 -42 5 -46 38 -1 14 -8 33 -15 41 -10 13 -10 17 2 25 10
6 10 9 2 9 -16 0 -17 42 -1 58 9 9 9 12 0 12 -16 0 -15 15 3 33 8 8 22 33 30
55 9 22 41 64 71 92 31 29 62 64 71 77 8 12 20 23 25 23 6 0 26 14 45 30 27
24 43 30 79 30 41 0 44 2 39 23 -21 94 -27 189 -32 524 -3 211 -9 381 -13 378
-7 -4 -14 60 -26 253 -5 74 -4 102 4 102 7 0 12 18 12 45 0 25 -4 45 -8 45 -5
0 -9 15 -10 32 0 18 -6 34 -11 36 -6 2 -11 28 -11 57 0 30 -4 57 -10 60 -5 3
-10 15 -10 26 0 10 -4 19 -10 19 -5 0 -10 10 -10 23 0 12 -14 36 -30 54 -35
37 -38 72 -10 98 28 25 25 71 -6 113 -15 19 -23 37 -18 41 14 9 19 32 18 77
-1 44 -35 104 -73 130 -17 12 -21 26 -21 68 0 70 -22 139 -65 206 -20 30 -42
69 -50 86 -7 18 -36 55 -64 83 -28 28 -51 57 -51 65 0 32 -53 79 -263 234 -40
29 -80 55 -89 58 -10 4 -18 11 -18 16 0 5 -24 35 -53 66 -30 31 -65 77 -78
100 -26 48 -202 197 -245 208 -35 9 -71 -3 -77 -26 -4 -14 -10 -18 -23 -13
-10 4 -22 0 -29 -10 -11 -15 -14 -16 -25 -2 -7 9 -29 15 -53 15 -33 0 -57 11
-122 54 -44 29 -96 58 -115 64 -19 6 -100 14 -180 18 -112 5 -154 11 -182 25
-44 22 -93 24 -139 5 -19 -7 -51 -12 -71 -10 -24 2 -44 -3 -60 -15 -32 -25
-91 -43 -114 -35 -10 4 -43 18 -72 30 -39 18 -71 24 -124 24 -54 0 -79 5 -104
20 -29 18 -51 21 -179 23 -81 1 -152 -1 -158 -5z m683 -1758 c0 -5 -2 -10 -4
-10 -3 0 -8 5 -11 10 -3 6 -1 10 4 10 6 0 11 -4 11 -10z m-2510 -320 c0 -5 -5
-10 -11 -10 -5 0 -7 5 -4 10 3 6 8 10 11 10 2 0 4 -4 4 -10z m2594 -1576 c4
-11 10 -13 19 -7 16 13 85 15 107 3 13 -7 21 -5 30 5 23 27 118 -9 106 -41 -3
-9 4 -11 22 -9 15 2 27 4 27 5 0 9 60 8 70 0 8 -7 19 -9 24 -6 14 9 30 -20 33
-61 1 -7 7 -13 15 -13 7 0 13 -6 13 -14 0 -8 10 -16 23 -18 12 -2 21 -9 19
-16 -2 -11 5 -14 24 -11 4 0 11 -5 16 -13 7 -10 11 -10 15 0 9 22 19 12 18
-20 l0 -31 -85 -3 c-111 -3 -164 -10 -190 -24 -11 -6 -119 -18 -238 -25 -119
-8 -237 -17 -262 -20 -25 -3 -121 -14 -215 -26 -93 -11 -213 -26 -265 -33 -52
-8 -103 -14 -112 -13 -24 1 -23 14 2 22 11 4 18 10 15 15 -3 5 -12 7 -19 4 -8
-3 -17 -1 -21 5 -3 6 -1 11 5 11 6 0 24 13 39 29 16 16 32 27 35 24 3 -4 6 1
6 10 0 11 5 14 17 10 12 -5 15 -2 10 10 -5 13 -1 17 14 17 11 0 30 10 42 23
12 13 38 34 57 47 19 13 38 28 41 32 3 5 19 10 35 12 16 2 29 5 29 6 0 1 11 3
24 6 14 2 29 8 35 13 6 5 31 11 56 14 25 3 76 17 115 31 38 15 91 29 118 32
27 2 61 11 76 19 34 19 48 18 55 -1z m716 -64 c0 -5 -2 -10 -4 -10 -3 0 -8 5
-11 10 -3 6 -1 10 4 10 6 0 11 -4 11 -10z m-1653 -67 c-3 -10 -5 -4 -5 12 0
17 2 24 5 18 2 -7 2 -21 0 -30z m1563 -38 c0 -8 -4 -15 -10 -15 -5 0 -7 7 -4
15 4 8 8 15 10 15 2 0 4 -7 4 -15z m35 5 c3 -5 1 -10 -4 -10 -6 0 -11 5 -11
10 0 6 2 10 4 10 3 0 8 -4 11 -10z m306 -171 c-9 -22 -10 -22 -10 -3 -1 11 2
24 6 27 12 12 14 0 4 -24z m-627 -33 c92 -18 127 -41 156 -102 26 -52 40 -141
21 -130 -6 4 -11 2 -11 -3 0 -6 4 -11 9 -11 20 0 32 -74 38 -236 11 -309 -21
-440 -127 -531 -56 -47 -97 -62 -275 -98 -273 -56 -539 -78 -796 -66 -97 5
-183 12 -190 16 -32 19 -114 104 -148 155 -111 162 -175 286 -226 435 -32 97
-36 119 -33 187 4 88 21 120 84 155 40 22 111 43 86 25 -11 -7 -9 -11 8 -15
12 -3 19 -10 15 -16 -3 -6 1 -11 9 -11 9 0 16 5 16 10 0 6 5 10 10 10 6 0 10
-9 10 -20 0 -11 4 -20 9 -20 4 0 6 11 4 24 -3 15 1 25 12 29 9 4 14 3 10 -3
-3 -6 -1 -10 4 -10 6 0 11 4 11 10 0 5 8 6 18 3 15 -6 15 -5 3 10 -12 15 -11
17 3 17 10 0 15 4 12 9 -11 17 6 41 28 41 12 0 26 4 31 8 14 13 88 32 120 32
l28 0 -23 -20 c-13 -12 -29 -19 -35 -16 -7 2 -18 0 -26 -5 -11 -7 -11 -9 2 -9
23 0 31 -26 13 -40 -8 -7 -14 -17 -14 -23 0 -6 -9 -21 -21 -33 -19 -20 -19
-23 -4 -38 9 -9 19 -16 23 -16 4 0 25 21 47 46 22 26 45 50 50 55 73 63 148
119 180 136 75 37 361 62 450 39 17 -4 71 -28 122 -52 51 -24 97 -44 102 -44
6 0 15 -8 20 -17 9 -15 12 -16 20 -4 6 10 4 19 -5 28 -8 8 -14 20 -14 26 0 14
-40 43 -54 39 -5 -2 -6 4 -3 12 4 9 -2 16 -15 19 -11 3 -17 10 -14 15 9 15
165 14 250 -2z m-3214 -77 c0 -5 24 -9 53 -7 28 1 90 -4 137 -11 114 -17 140
-19 320 -21 137 -2 159 -5 189 -23 30 -18 32 -21 15 -31 -20 -11 -21 -11 -99
-16 l-50 -3 65 -7 c36 -4 97 -8 137 -9 74 -1 103 -7 103 -21 0 -6 -446 -5
-515 1 -22 2 -438 -43 -524 -57 l-38 -6 -6 45 c-8 60 1 111 24 125 15 10 17 9
13 -3 -5 -11 -2 -13 9 -9 9 3 14 11 11 18 -6 16 49 27 101 20 36 -4 44 3 24
23 -9 9 -7 10 10 6 11 -3 21 -9 21 -14z m5163 -31 c3 -18 11 -53 17 -78 21
-83 23 -186 5 -285 -9 -52 -15 -102 -13 -111 3 -17 4 -17 21 0 9 10 15 22 12
27 -4 5 -2 9 2 9 16 0 56 135 63 214 7 77 7 78 10 26 2 -30 4 -68 5 -85 2 -16
-3 -37 -9 -45 -18 -23 -30 -54 -77 -200 -40 -127 -56 -168 -70 -180 -3 -3 -12
-26 -20 -52 -7 -27 -17 -48 -21 -48 -4 0 -8 -6 -8 -13 0 -7 -9 -32 -20 -55
-11 -22 -20 -45 -20 -50 0 -18 -27 -61 -53 -88 -15 -15 -27 -32 -27 -38 0 -17
-123 -129 -170 -154 -64 -34 -59 -20 12 30 34 24 68 55 75 68 7 14 17 24 22
23 5 -1 7 6 4 16 -3 10 0 22 6 25 6 4 11 16 11 26 0 10 9 22 20 25 11 3 25 15
31 26 14 27 50 129 53 152 1 9 21 37 44 61 41 43 86 128 75 140 -4 3 -1 6 5 6
7 0 12 13 12 30 0 29 -1 29 -20 13 -11 -10 -20 -23 -20 -30 0 -7 -4 -13 -10
-13 -5 0 -10 -6 -10 -12 0 -17 -75 -78 -95 -78 -9 0 -27 -11 -41 -24 -25 -23
-31 -47 -33 -144 -1 -26 -6 -35 -22 -39 -16 -4 -17 -8 -7 -14 10 -7 9 -9 -3
-9 -9 0 -19 -8 -22 -18 -2 -11 -14 -22 -26 -25 -18 -4 -21 -2 -16 14 5 15 1
19 -17 20 -17 1 -18 3 -5 6 18 5 24 33 6 33 -5 0 -7 -4 -4 -10 3 -5 1 -10 -5
-10 -8 0 -9 7 -5 18 4 9 8 24 9 33 1 8 14 31 29 50 15 20 27 44 27 54 0 10 3
15 6 12 12 -11 59 34 59 56 0 18 5 22 30 20 25 -1 27 0 14 9 -15 10 -13 16 16
57 30 41 34 56 39 134 4 49 13 102 22 118 8 16 10 29 5 29 -6 0 -9 17 -7 39 2
29 -1 41 -17 51 -16 9 -17 14 -7 20 11 7 11 11 0 25 -7 9 -9 15 -4 14 43 -8
44 15 2 31 -29 10 -31 13 -14 19 14 5 16 10 8 15 -7 4 -12 12 -12 17 0 14 107
118 114 111 3 -3 6 0 6 6 0 27 28 10 33 -20z m137 -112 c0 -3 -4 -8 -10 -11
-5 -3 -10 -1 -10 4 0 6 5 11 10 11 6 0 10 -2 10 -4z m-4731 -72 c39 -8 42 -34
3 -34 -49 0 -253 -49 -298 -72 -24 -12 -63 -38 -86 -59 -24 -21 -47 -38 -53
-39 -6 0 -5 4 1 8 6 4 14 17 18 30 4 12 12 22 18 22 5 0 8 7 4 15 -3 8 -2 15
3 15 4 0 21 11 37 25 16 14 41 31 57 38 15 6 27 15 27 18 0 6 117 27 185 32
22 2 43 4 46 5 4 1 21 -1 38 -4z m-438 -52 c-11 -8 -21 -21 -21 -29 0 -7 -6
-16 -14 -19 -8 -3 -12 -13 -9 -24 3 -10 0 -21 -6 -24 -21 -13 -11 -37 25 -58
36 -21 37 -25 23 -78 -3 -9 4 -16 19 -18 13 -2 22 2 22 10 0 8 10 14 23 15 20
2 50 28 88 78 27 37 64 64 121 89 l56 25 -5 -74 c-5 -64 -3 -78 16 -109 12
-19 36 -47 54 -62 28 -24 36 -26 91 -20 71 7 122 20 142 37 31 26 49 83 47
152 -1 37 3 67 7 67 14 0 82 -39 105 -60 11 -10 33 -22 49 -26 32 -8 31 1 -6
43 -22 24 -21 58 2 58 8 0 27 -18 42 -40 37 -52 52 -171 45 -355 -5 -136 -41
-350 -72 -423 -18 -43 -74 -93 -132 -118 -130 -56 -395 -103 -661 -118 -166
-9 -429 2 -472 19 -44 18 -165 240 -223 410 -36 106 -77 274 -84 347 -8 85 20
143 83 173 42 21 74 21 74 1 0 -5 -8 -7 -18 -5 -10 3 -30 -8 -51 -30 -27 -28
-35 -45 -39 -86 l-5 -51 29 7 c16 3 55 13 87 20 32 8 109 18 172 21 97 5 118
4 140 -11 l26 -17 -7 128 -7 129 64 12 c35 7 76 14 92 16 15 1 29 5 32 7 2 3
21 5 41 5 35 0 36 -1 15 -14z m494 -62 c0 -10 -11 -15 -35 -15 -28 0 -36 4
-38 21 -3 19 1 20 35 15 24 -4 38 -12 38 -21z m-1017 -75 c-3 -3 -9 2 -12 12
-6 14 -5 15 5 6 7 -7 10 -15 7 -18z m5322 -335 c0 -5 -4 -10 -10 -10 -5 0 -10
5 -10 10 0 6 5 10 10 10 6 0 10 -4 10 -10z m-210 -530 c0 -5 -5 -10 -11 -10
-5 0 -7 5 -4 10 3 6 8 10 11 10 2 0 4 -4 4 -10z m-40 -20 c0 -5 -5 -10 -11
-10 -5 0 -7 5 -4 10 3 6 8 10 11 10 2 0 4 -4 4 -10z m-260 -1494 c0 -28 9 -42
51 -80 28 -25 49 -50 47 -55 -2 -5 -29 15 -60 44 -52 49 -58 59 -58 95 0 25 4
39 10 35 6 -3 10 -21 10 -39z m160 -209 c0 -13 -29 12 -42 37 -10 19 -8 18 16
-3 14 -14 26 -29 26 -34z m40 -60 c0 -6 7 -19 17 -29 9 -10 12 -18 7 -18 -5 0
-22 21 -38 48 -23 38 -24 43 -7 28 11 -11 21 -24 21 -29z m-3954 -138 c7 -12
-15 -31 -28 -23 -9 6 1 34 12 34 5 0 12 -5 16 -11z m-69 -91 c-3 -8 -6 -5 -6
6 -1 11 2 17 5 13 3 -3 4 -12 1 -19z m2041 -50 c-6 -18 -28 -21 -28 -4 0 9 7
16 16 16 9 0 14 -5 12 -12z m-1675 -71 c-3 -5 -9 -3 -14 4 -4 7 -5 17 -2 22 3
5 9 3 14 -4 4 -7 5 -17 2 -22z m1417 29 c0 -3 -4 -8 -10 -11 -5 -3 -10 -1 -10
4 0 6 5 11 10 11 6 0 10 -2 10 -4z m2445 -56 c3 -5 1 -10 -4 -10 -6 0 -11 5
-11 10 0 6 2 10 4 10 3 0 8 -4 11 -10z m-4056 -124 c-5 -6 -9 15 -8 55 l1 64
9 -55 c4 -32 4 -59 -2 -64z m256 14 c-5 -16 -10 -19 -18 -11 -7 7 -6 15 3 26
17 20 24 13 15 -15z m-228 -12 c-3 -7 -5 -2 -5 12 0 14 2 19 5 13 2 -7 2 -19
0 -25z m-102 11 c11 -17 -1 -21 -15 -4 -8 9 -8 15 -2 15 6 0 14 -5 17 -11z
m975 1 c0 -5 -5 -10 -11 -10 -5 0 -7 5 -4 10 3 6 8 10 11 10 2 0 4 -4 4 -10z
m50 -59 c0 -45 -6 -37 -14 19 -4 31 -3 40 4 30 5 -8 10 -30 10 -49z m140 17
c0 -18 -2 -20 -9 -8 -6 8 -7 18 -5 22 9 14 14 9 14 -14z m-429 -75 c-9 -15
-10 -13 -11 13 0 17 3 34 8 38 11 12 14 -32 3 -51z m701 -55 c-9 -9 -12 -7
-12 12 0 19 3 21 12 12 9 -9 9 -15 0 -24z m2413 -68 c3 -5 1 -10 -4 -10 -6 0
-11 5 -11 10 0 6 2 10 4 10 3 0 8 -4 11 -10z m-170 -120 c3 -5 1 -10 -4 -10
-6 0 -11 5 -11 10 0 6 2 10 4 10 3 0 8 -4 11 -10z m-2695 -62 c0 -6 -7 -5 -15
2 -8 7 -15 17 -15 22 0 6 7 5 15 -2 8 -7 15 -17 15 -22z m-293 -50 c-3 -7 -5
-2 -5 12 0 14 2 19 5 13 2 -7 2 -19 0 -25z m3031 -26 c2 -7 -3 -12 -12 -12 -9
0 -16 7 -16 16 0 17 22 14 28 -4z m-118 -7 c0 -9 -6 -12 -15 -9 -8 4 -15 10
-15 15 0 5 7 9 15 9 8 0 15 -7 15 -15z m397 -7 c-3 -8 -6 -5 -6 6 -1 11 2 17
5 13 3 -3 4 -12 1 -19z m173 -8 c0 -5 -4 -10 -10 -10 -5 0 -10 5 -10 10 0 6 5
10 10 10 6 0 10 -4 10 -10z m450 -29 c0 -5 -9 -7 -20 -4 -11 3 -20 7 -20 9 0
2 9 4 20 4 11 0 20 -4 20 -9z m-3473 -91 c14 -36 1 -40 -15 -5 -14 31 -15 35
-4 35 4 0 13 -13 19 -30z m2473 -6 c0 -8 -4 -14 -10 -14 -5 0 -10 9 -10 21 0
11 5 17 10 14 6 -3 10 -13 10 -21z m328 7 c3 -8 -1 -12 -9 -9 -7 2 -15 10 -17
17 -3 8 1 12 9 9 7 -2 15 -10 17 -17z m89 -3 c-3 -8 -6 -5 -6 6 -1 11 2 17 5
13 3 -3 4 -12 1 -19z m-197 2 c0 -5 -4 -10 -10 -10 -5 0 -10 5 -10 10 0 6 5
10 10 10 6 0 10 -4 10 -10z m-330 -10 c0 -5 -4 -10 -10 -10 -5 0 -10 5 -10 10
0 6 5 10 10 10 6 0 10 -4 10 -10z m-280 -32 c8 2 2 -7 -15 -21 -16 -14 -32
-21 -34 -15 -2 6 2 14 8 17 6 4 9 16 6 27 -6 17 -5 17 7 3 7 -9 20 -14 28 -11z
m-68 -32 c6 -14 7 -33 3 -43 -5 -10 -7 -24 -6 -31 1 -7 -6 -15 -15 -19 -23 -9
-57 -43 -50 -50 3 -4 15 4 26 17 15 17 20 19 20 8 0 -9 -28 -42 -62 -73 -38
-34 -58 -59 -50 -62 17 -7 15 -23 -3 -23 -8 0 -23 -8 -32 -18 -58 -60 -113
-124 -113 -132 0 -5 -9 -12 -20 -15 -11 -3 -20 -12 -20 -20 0 -13 -32 -53
-101 -126 -20 -21 -34 -41 -31 -44 3 -3 0 -5 -7 -5 -7 0 -9 -5 -6 -11 4 -6 -2
-13 -14 -16 -11 -3 -19 -9 -16 -12 6 -10 -43 -81 -56 -81 -6 0 -8 -4 -5 -9 3
-4 -12 -28 -34 -52 -22 -24 -46 -62 -53 -84 -8 -23 -27 -54 -43 -70 -54 -55
-79 -97 -76 -123 3 -21 0 -24 -17 -19 -14 3 -22 -1 -26 -13 -3 -10 -21 -37
-39 -60 -24 -30 -32 -49 -28 -67 4 -22 2 -25 -15 -21 -18 5 -61 -17 -55 -27 6
-13 0 -25 -12 -25 -21 0 -98 -93 -84 -101 9 -6 8 -12 -2 -23 -7 -9 -15 -15
-17 -12 -10 10 -73 -60 -73 -81 0 -12 -8 -27 -19 -32 -10 -6 -24 -25 -31 -43
-16 -40 -49 -78 -67 -78 -15 0 -30 -11 -68 -49 -20 -20 -30 -23 -69 -19 -47 6
-55 -2 -36 -32 9 -14 -4 -40 -20 -40 -15 0 -29 47 -17 59 8 8 8 11 -1 11 -7 0
-12 -4 -12 -9 0 -5 -7 -17 -16 -25 -20 -21 -41 -21 -24 -1 10 13 9 15 -9 15
-11 0 -21 -4 -21 -10 0 -5 -9 -10 -19 -10 -11 0 -23 -4 -26 -10 -3 -5 -17 -10
-31 -10 -14 0 -23 -4 -20 -9 7 -11 -18 -33 -27 -25 -4 4 -11 -5 -16 -20 -7
-16 -18 -26 -31 -26 -11 0 -20 -6 -20 -14 0 -24 -21 -30 -27 -7 -11 42 -94 12
-123 -45 -8 -16 -24 -40 -36 -54 -37 -41 -87 -120 -133 -210 -110 -213 -129
-245 -142 -248 -15 -3 -36 55 -58 158 -6 24 -17 50 -25 56 -9 6 -16 17 -16 24
0 10 3 10 16 -1 13 -11 14 -9 8 17 -4 16 -10 34 -14 39 -5 6 -10 33 -13 60 -5
53 -33 175 -37 163 -1 -5 -3 -12 -4 -17 -2 -19 -16 -23 -22 -6 -4 10 -1 20 6
25 18 11 4 80 -16 80 -8 0 -20 14 -26 31 -6 17 -21 34 -33 39 -13 5 -25 19
-27 32 -2 13 -12 27 -24 32 -11 5 -28 22 -37 38 -9 15 -25 28 -35 28 -13 0
-21 9 -25 29 -4 17 -14 30 -25 33 -11 3 -26 18 -34 34 -8 16 -21 28 -29 28
-12 -1 -16 8 -15 35 1 31 -2 36 -26 41 -14 3 -37 18 -49 34 l-23 29 25 -5 c13
-3 31 -8 39 -12 8 -3 21 -2 29 3 12 8 13 15 4 34 -9 20 -17 23 -39 19 -19 -3
-25 -1 -20 7 12 18 42 13 99 -19 50 -27 56 -28 62 -13 3 10 2 19 -3 21 -45 15
-50 55 -7 66 12 3 25 16 29 28 3 14 9 19 13 13 13 -17 64 -47 71 -41 3 4 -7
19 -22 34 -17 19 -24 35 -20 45 9 25 23 21 42 -15 9 -17 26 -40 36 -51 11 -11
21 -32 22 -46 1 -14 6 -37 10 -50 9 -30 -16 -25 -31 6 -10 23 -49 46 -59 36
-15 -15 -3 -32 29 -43 20 -6 48 -29 67 -52 28 -36 30 -42 15 -52 -14 -11 -13
-15 8 -42 24 -29 32 -54 18 -54 -5 0 -21 16 -36 36 -23 28 -31 33 -43 23 -24
-20 -16 -39 17 -39 26 0 29 -3 24 -21 -4 -13 0 -27 11 -40 20 -22 49 -26 41
-5 -3 8 -2 16 3 18 4 2 2 39 -6 83 -18 99 -25 315 -13 415 4 41 13 149 19 240
10 158 23 244 41 265 5 5 9 17 9 27 0 10 4 18 10 18 5 0 7 -6 4 -14 -4 -10 0
-13 14 -10 35 10 30 94 -19 312 -12 57 -12 95 2 86 6 -3 8 -16 5 -28 -5 -21
33 -76 53 -76 5 0 12 -8 14 -17 4 -14 5 -13 6 3 0 12 -6 25 -15 28 -28 11 -10
16 22 7 16 -5 23 -10 17 -10 -7 -1 -13 -6 -13 -12 0 -6 7 -9 15 -5 10 4 15 -1
15 -14 0 -22 16 -27 22 -8 2 6 10 8 16 4 9 -5 8 -12 -5 -24 -15 -16 -13 -17
27 -25 31 -6 39 -12 31 -20 -16 -16 -14 -57 4 -57 8 0 15 5 15 11 0 16 29 41
40 34 12 -8 13 -45 1 -45 -5 0 -7 10 -4 23 5 21 4 21 -16 -3 -22 -27 -27 -50
-11 -50 6 0 10 4 10 9 0 5 18 11 40 15 28 4 39 10 34 19 -4 7 -1 6 7 -2 10
-10 11 -15 2 -18 -7 -2 -9 -11 -6 -19 3 -8 0 -20 -6 -28 -16 -19 11 -39 50
-38 26 1 29 -2 24 -20 -6 -17 -5 -18 14 -9 14 8 21 8 21 1 0 -5 -4 -10 -10
-10 -5 0 -10 -4 -10 -10 0 -5 9 -10 20 -10 14 0 18 -5 13 -16 -5 -14 -3 -15
15 -5 18 9 19 8 15 -10 -5 -16 -2 -20 13 -17 12 2 18 -2 16 -10 -1 -8 7 -16
18 -19 11 -3 17 -9 14 -14 -5 -9 8 -13 36 -10 12 2 13 0 1 -7 -11 -8 -8 -13
13 -28 19 -12 26 -23 22 -36 -3 -14 0 -18 9 -14 7 2 16 -2 19 -10 3 -8 14 -14
25 -14 11 0 26 -7 34 -15 8 -8 17 -11 21 -8 3 4 6 1 6 -5 0 -7 6 -12 14 -12 8
0 21 -8 28 -19 7 -10 22 -20 33 -22 12 -3 20 -12 20 -24 0 -11 6 -19 13 -17 6
1 12 -4 12 -12 0 -8 6 -14 13 -13 35 1 57 -5 71 -19 9 -8 16 -11 16 -5 0 6 7
11 15 11 8 0 15 -5 15 -11 0 -5 4 -8 9 -5 5 4 20 2 34 -3 15 -6 29 -6 36 0 8
6 8 5 1 -3 -17 -21 -11 -27 19 -18 20 5 31 5 34 -3 2 -6 11 -8 23 -2 10 4 36
7 56 6 20 -2 47 5 61 14 13 8 32 13 41 9 10 -4 18 0 22 10 3 9 10 13 15 10 5
-3 9 2 9 10 0 11 9 16 30 16 23 0 30 4 30 20 0 11 4 20 9 20 6 0 22 11 37 25
15 14 31 25 36 25 5 0 14 14 19 30 6 17 15 30 20 30 5 0 9 9 9 20 0 11 7 20
15 20 8 0 15 5 15 11 0 5 5 7 12 3 6 -4 8 -3 4 4 -8 13 35 62 55 62 21 1 75
52 83 77 4 12 15 25 25 28 10 3 18 13 17 23 0 9 5 16 12 14 6 -1 12 2 12 8 0
5 7 10 15 10 8 0 15 7 15 16 0 8 4 13 9 10 5 -3 11 7 14 22 3 15 1 29 -4 30
-5 2 -9 8 -9 13 0 6 4 8 9 4 5 -3 12 4 16 15 3 11 11 20 17 20 15 0 53 52 54
75 0 11 6 19 13 17 9 -2 11 3 7 14 -8 21 9 34 47 34 16 0 26 4 22 10 -3 6 -2
10 3 10 6 0 13 11 16 25 4 14 11 25 16 25 14 0 12 -17 -2 -23 -7 -3 -8 -6 -3
-6 6 -1 24 11 42 27 25 21 30 31 22 45 -8 14 -5 19 16 27 14 5 24 14 21 19 -3
5 1 14 9 21 8 7 12 16 9 21 -5 9 28 14 74 11 12 0 22 5 22 11 0 7 4 6 10 -3 9
-13 11 -13 20 0 13 20 13 26 -6 44 -8 9 -11 16 -4 16 6 0 15 -11 22 -24z
m-2851 -9 c-1 -12 -15 -9 -19 4 -3 6 1 10 8 8 6 -3 11 -8 11 -12z m4414 -17
c3 -5 -1 -10 -10 -10 -9 0 -13 5 -10 10 3 6 8 10 10 10 2 0 7 -4 10 -10z
m-1515 -4 c0 -3 -4 -8 -10 -11 -5 -3 -10 -1 -10 4 0 6 5 11 10 11 6 0 10 -2
10 -4z m853 -39 c-3 -5 -10 -4 -15 1 -6 6 -7 16 -3 22 6 9 9 9 16 -1 4 -7 5
-17 2 -22z m102 3 c-6 -9 -9 -9 -16 1 -10 17 0 34 13 21 6 -6 7 -16 3 -22z
m92 4 c-9 -9 -28 6 -21 18 4 6 10 6 17 -1 6 -6 8 -13 4 -17z m-517 -5 c0 -5
-4 -9 -10 -9 -5 0 -10 7 -10 16 0 8 5 12 10 9 6 -3 10 -10 10 -16z m110 6 c0
-8 -4 -15 -9 -15 -5 0 -11 7 -15 15 -3 9 0 15 9 15 8 0 15 -7 15 -15z m500 0
c0 -8 -4 -15 -10 -15 -5 0 -10 7 -10 15 0 8 5 15 10 15 6 0 10 -7 10 -15z
m508 -3 c2 -7 -2 -10 -12 -6 -9 3 -16 11 -16 16 0 13 23 5 28 -10z m-1440 -11
c3 -8 -1 -12 -9 -9 -7 2 -15 10 -17 17 -3 8 1 12 9 9 7 -2 15 -10 17 -17z
m112 -2 c0 -5 -4 -9 -10 -9 -5 0 -10 7 -10 16 0 8 5 12 10 9 6 -3 10 -10 10
-16z m-240 -9 c0 -5 -9 -10 -20 -10 -11 0 -20 5 -20 10 0 6 9 10 20 10 11 0
20 -4 20 -10z m1438 -7 c2 -8 -5 -13 -17 -13 -12 0 -21 6 -21 16 0 18 31 15
38 -3z m-4548 -8 c0 -9 -6 -12 -15 -9 -8 4 -15 10 -15 15 0 5 7 9 15 9 8 0 15
-7 15 -15z m160 -21 c0 -8 -4 -12 -10 -9 -5 3 -10 10 -10 16 0 5 5 9 10 9 6 0
10 -7 10 -16z m-120 -14 c0 -5 -4 -10 -10 -10 -5 0 -10 5 -10 10 0 6 5 10 10
10 6 0 10 -4 10 -10z m3860 -56 c0 -14 -12 -19 -23 -8 -9 9 4 35 14 28 5 -3 9
-12 9 -20z m220 11 c0 -8 -7 -15 -15 -15 -8 0 -15 7 -15 15 0 8 7 15 15 15 8
0 15 -7 15 -15z m400 -1 c0 -9 -7 -14 -17 -12 -25 5 -28 28 -4 28 12 0 21 -6
21 -16z m-730 -14 c0 -11 -4 -20 -9 -20 -11 0 -22 26 -14 34 12 12 23 5 23
-14z m221 5 c-1 -15 -24 -12 -29 3 -3 9 2 13 12 10 10 -1 17 -7 17 -13z m199
5 c0 -5 -4 -10 -10 -10 -5 0 -10 5 -10 10 0 6 5 10 10 10 6 0 10 -4 10 -10z
m-642 -18 c2 -7 -3 -12 -12 -12 -9 0 -16 7 -16 16 0 17 22 14 28 -4z m-439
-18 c3 -16 1 -17 -13 -5 -19 16 -21 34 -3 29 6 -3 14 -13 16 -24z m111 11 c0
-8 -4 -15 -10 -15 -5 0 -10 7 -10 15 0 8 5 15 10 15 6 0 10 -7 10 -15z m106
-12 c-10 -10 -19 5 -10 18 6 11 8 11 12 0 2 -7 1 -15 -2 -18z m114 17 c0 -5
-4 -10 -10 -10 -5 0 -10 5 -10 10 0 6 5 10 10 10 6 0 10 -4 10 -10z m215 0 c3
-5 1 -10 -4 -10 -6 0 -11 5 -11 10 0 6 2 10 4 10 3 0 8 -4 11 -10z m-670 -10
c3 -5 4 -14 0 -20 -8 -13 -35 -1 -35 16 0 16 26 19 35 4z m-3205 -20 c-12 -23
-30 -27 -30 -7 0 17 10 27 27 27 11 0 11 -5 3 -20z m108 2 c2 -7 -3 -12 -12
-12 -9 0 -16 7 -16 16 0 17 22 14 28 -4z m160 -16 c3 -12 -1 -17 -10 -14 -7 3
-15 13 -16 22 -3 12 1 17 10 14 7 -3 15 -13 16 -22z m4420 -18 c-7 -19 -38
-22 -38 -4 0 10 9 16 21 16 12 0 19 -5 17 -12z m-4688 -24 c0 -17 -26 -19 -36
-3 -7 12 15 31 28 23 4 -3 8 -12 8 -20z m4238 -28 c3 -12 -1 -17 -10 -14 -7 3
-15 13 -16 22 -3 12 1 17 10 14 7 -3 15 -13 16 -22z m112 4 c0 -11 -4 -20 -10
-20 -5 0 -10 9 -10 20 0 11 5 20 10 20 6 0 10 -9 10 -20z m-224 -1 c3 -6 1
-16 -5 -22 -9 -9 -14 -8 -21 3 -9 15 -4 30 10 30 5 0 12 -5 16 -11z m-126 -14
c0 -8 -7 -15 -15 -15 -16 0 -20 12 -8 23 11 12 23 8 23 -8z m-335 -13 c0 -18
-20 -15 -23 4 -3 10 1 15 10 12 7 -3 13 -10 13 -16z m113 0 c2 -7 -3 -12 -12
-12 -9 0 -16 7 -16 16 0 17 22 14 28 -4z m112 2 c0 -17 -22 -14 -28 4 -2 7 3
12 12 12 9 0 16 -7 16 -16z m-662 -13 c3 -8 -1 -12 -9 -9 -7 2 -15 10 -17 17
-3 8 1 12 9 9 7 -2 15 -10 17 -17z m220 0 c3 -8 -1 -12 -9 -9 -7 2 -15 10 -17
17 -3 8 1 12 9 9 7 -2 15 -10 17 -17z m-3428 -12 c0 -24 -23 -21 -28 4 -2 10
3 17 12 17 10 0 16 -9 16 -21z m266 -17 c-10 -10 -29 15 -21 28 6 9 10 8 17
-4 6 -10 7 -20 4 -24z m134 28 c0 -5 -2 -10 -4 -10 -3 0 -8 5 -11 10 -3 6 -1
10 4 10 6 0 11 -4 11 -10z m2674 -13 c13 -20 5 -30 -18 -21 -9 3 -16 15 -16
26 0 22 18 20 34 -5z m246 13 c0 -5 -4 -10 -10 -10 -5 0 -10 5 -10 10 0 6 5
10 10 10 6 0 10 -4 10 -10z m-3440 -30 c-18 -11 -22 -7 -14 14 5 13 10 14 18
6 8 -8 7 -13 -4 -20z m270 -1 c0 -5 -7 -9 -15 -9 -15 0 -20 12 -9 23 8 8 24
-1 24 -14z m4460 0 c0 -5 -4 -9 -10 -9 -5 0 -10 7 -10 16 0 8 5 12 10 9 6 -3
10 -10 10 -16z m1082 -11 c37 -18 69 -38 72 -45 4 -10 -137 57 -152 72 -13 13
19 2 80 -27z m-5794 -25 c-2 -10 -10 -18 -18 -18 -8 0 -16 8 -18 18 -2 12 3
17 18 17 15 0 20 -5 18 -17z m4345 -28 c8 -19 -13 -31 -24 -14 -13 20 -11 29
5 29 8 0 16 -7 19 -15z m-118 -15 c0 -22 -29 -18 -33 3 -3 14 1 18 15 15 10
-2 18 -10 18 -18z m-2725 -10 c0 -11 -4 -20 -10 -20 -5 0 -10 7 -10 15 0 17
-16 20 -25 6 -3 -5 2 -17 11 -25 17 -17 18 -16 -28 -20 -7 -1 -12 5 -10 12 1
6 -3 12 -10 12 -6 0 -3 9 7 20 10 11 31 20 47 20 21 0 28 -5 28 -20z m50 6 c0
-8 -4 -17 -10 -21 -5 -3 -7 -11 -5 -18 6 -16 -12 -44 -22 -33 -4 5 -2 11 6 14
10 3 10 6 1 12 -8 5 -9 13 -4 21 5 8 9 17 10 22 3 15 4 17 14 17 6 0 10 -6 10
-14z m2438 -10 c3 -12 -1 -17 -10 -14 -7 3 -15 13 -16 22 -3 12 1 17 10 14 7
-3 15 -13 16 -22z m122 20 c0 -2 -3 -12 -6 -20 -5 -13 -9 -14 -20 -5 -20 16
-17 29 6 29 11 0 20 -2 20 -4z m-3820 -26 c0 -11 -6 -20 -14 -20 -7 0 -16 9
-19 20 -4 15 0 20 14 20 12 0 19 -7 19 -20z m230 10 c0 -5 -4 -10 -10 -10 -5
0 -10 5 -10 10 0 6 5 10 10 10 6 0 10 -4 10 -10z m2925 0 c11 -17 -5 -32 -21
-19 -8 6 -14 15 -14 20 0 12 27 11 35 -1z m105 -11 c0 -11 -4 -17 -10 -14 -5
3 -10 13 -10 21 0 8 5 14 10 14 6 0 10 -9 10 -21z m105 3 c0 -18 -20 -15 -23
4 -3 10 1 15 10 12 7 -3 13 -10 13 -16z m113 0 c2 -7 -3 -12 -12 -12 -9 0 -16
7 -16 16 0 17 22 14 28 -4z m110 0 c2 -7 -3 -12 -12 -12 -9 0 -16 7 -16 16 0
17 22 14 28 -4z m-558 -7 c0 -8 -4 -15 -10 -15 -5 0 -10 7 -10 15 0 8 5 15 10
15 6 0 10 -7 10 -15z m-3390 -7 c0 -4 -4 -8 -9 -8 -14 0 -21 -40 -11 -65 7
-19 6 -21 -16 -17 -27 5 -28 11 -14 64 8 27 16 36 30 35 11 -1 20 -5 20 -9z
m93 -2 c12 -30 -17 -35 -33 -6 -9 17 -8 20 9 20 10 0 21 -6 24 -14z m3178 -1
c-1 -15 -24 -12 -29 3 -3 9 2 13 12 10 10 -1 17 -7 17 -13z m-3043 -13 c2 -7
-2 -10 -12 -6 -9 3 -16 11 -16 16 0 13 23 5 28 -10z m2910 -6 c3 -13 -1 -17
-14 -14 -11 2 -20 11 -22 22 -3 13 1 17 14 14 11 -2 20 -11 22 -22z m-1645
-16 c12 -11 27 -18 34 -16 7 3 13 2 13 -3 0 -19 -37 -18 -49 1 -7 11 -18 17
-26 14 -9 -3 -12 0 -8 10 7 18 10 18 36 -6z m4973 -15 c40 -20 139 -115 120
-115 -3 0 -31 23 -62 51 -31 28 -72 57 -90 65 -32 14 -44 24 -26 24 4 0 30
-11 58 -25z m-5036 11 c0 -3 -4 -8 -10 -11 -5 -3 -10 -1 -10 4 0 6 5 11 10 11
6 0 10 -2 10 -4z m1570 -22 c0 -17 -22 -14 -28 4 -2 7 3 12 12 12 9 0 16 -7
16 -16z m-2604 -15 c3 -6 2 -15 -2 -19 -12 -12 -38 5 -30 19 9 14 23 14 32 0z
m3924 -19 c0 -21 -24 -28 -35 -10 -8 14 3 30 21 30 8 0 14 -9 14 -20z m120 -1
c0 -5 -7 -9 -15 -9 -8 0 -15 7 -15 15 0 9 6 12 15 9 8 -4 15 -10 15 -15z
m-2910 7 c0 -3 -4 -8 -10 -11 -5 -3 -10 -1 -10 4 0 6 5 11 10 11 6 0 10 -2 10
-4z m2668 -19 c2 -10 -3 -17 -12 -17 -10 0 -16 9 -16 21 0 24 23 21 28 -4z
m-4048 -44 c0 -23 -30 -14 -40 13 -16 42 -12 49 15 24 14 -13 25 -29 25 -37z
m123 42 c4 -8 2 -17 -4 -21 -15 -9 -39 3 -39 21 0 19 36 20 43 0z m3585 -9 c3
-12 -1 -17 -10 -14 -7 3 -15 13 -16 22 -3 12 1 17 10 14 7 -3 15 -13 16 -22z
m110 0 c3 -12 -1 -17 -10 -14 -7 3 -15 13 -16 22 -3 12 1 17 10 14 7 -3 15
-13 16 -22z m112 4 c0 -13 -5 -18 -15 -14 -8 4 -15 12 -15 20 0 8 7 14 15 14
8 0 15 -9 15 -20z m-4073 -35 c-2 -5 -11 -11 -20 -13 -12 -3 -17 4 -17 21 0
13 3 27 7 31 9 9 35 -24 30 -39z m3411 22 c2 -10 -3 -17 -12 -17 -10 0 -16 9
-16 21 0 24 23 21 28 -4z m120 0 c2 -10 -3 -17 -12 -17 -9 0 -16 2 -16 4 0 2
-3 12 -6 21 -5 13 -2 16 12 13 10 -2 20 -11 22 -21z m112 7 c0 -17 -22 -14
-28 4 -2 7 3 12 12 12 9 0 16 -7 16 -16z m104 0 c4 -10 1 -14 -6 -12 -15 5
-23 28 -10 28 5 0 13 -7 16 -16z m-456 -17 c2 -10 -3 -17 -12 -17 -10 0 -16 9
-16 21 0 24 23 21 28 -4z m-3403 -40 c0 -36 -4 -47 -16 -47 -11 0 -15 10 -13
43 3 60 3 59 16 55 7 -3 12 -24 13 -51z m3273 25 c2 -14 -2 -22 -11 -22 -17 0
-30 27 -21 41 9 16 29 4 32 -19z m-138 4 c0 -2 3 -11 6 -20 5 -12 0 -16 -20
-16 -24 0 -35 18 -19 33 7 8 33 10 33 3z m-1433 -12 c-3 -3 -12 -4 -19 -1 -8
3 -5 6 6 6 11 1 17 -2 13 -5z m-1167 -34 c0 -13 -5 -18 -15 -14 -8 4 -15 12
-15 20 0 8 7 14 15 14 8 0 15 -9 15 -20z m2470 -14 c0 -15 -24 -28 -34 -19
-13 14 -5 33 14 33 11 0 20 -6 20 -14z m-2590 -16 c0 -13 -5 -18 -15 -14 -8 4
-15 12 -15 20 0 8 7 14 15 14 8 0 15 -9 15 -20z m320 10 c0 -5 -4 -10 -10 -10
-5 0 -10 5 -10 10 0 6 5 10 10 10 6 0 10 -4 10 -10z m3720 -20 c0 -14 -14 -12
-28 2 -19 19 -14 30 8 18 11 -6 20 -15 20 -20z m-136 14 c9 -3 16 -13 16 -21
0 -20 -34 -12 -38 10 -4 19 -1 20 22 11z m-4398 -20 c-3 -9 -6 -31 -6 -51 0
-23 -4 -33 -12 -30 -7 2 -21 -2 -30 -10 -15 -13 -16 -13 -11 6 3 12 9 21 14
21 5 0 9 9 9 21 0 26 17 59 31 59 6 0 8 -7 5 -16z m224 -11 c0 -9 7 -21 17
-28 9 -7 13 -17 9 -23 -11 -18 -26 -14 -26 6 0 9 -7 26 -15 36 -8 10 -12 23
-9 28 8 12 24 0 24 -19z m4068 4 c2 -10 -3 -17 -12 -17 -10 0 -16 9 -16 21 0
24 23 21 28 -4z m-3925 -2 c7 -16 -8 -29 -23 -20 -15 9 -12 35 4 35 8 0 16 -7
19 -15z m3497 -16 c0 -5 -7 -9 -15 -9 -9 0 -15 9 -15 21 0 18 2 19 15 9 8 -7
15 -16 15 -21z m100 5 c0 -8 -4 -14 -9 -14 -11 0 -22 26 -14 34 9 9 23 -3 23
-20z m100 0 c0 -8 -4 -14 -10 -14 -5 0 -10 9 -10 21 0 11 5 17 10 14 6 -3 10
-13 10 -21z m110 6 c0 -11 -4 -20 -10 -20 -5 0 -10 2 -10 4 0 2 -3 11 -6 20
-4 11 -1 16 10 16 9 0 16 -8 16 -20z m-540 -21 c0 -12 -27 -11 -35 1 -11 17 5
32 21 19 8 -6 14 -15 14 -20z m110 11 c0 -11 -7 -20 -15 -20 -8 0 -15 9 -15
20 0 11 7 20 15 20 8 0 15 -9 15 -20z m-241 -3 c12 -15 5 -27 -16 -27 -7 0
-13 9 -13 20 0 23 13 26 29 7z m-3401 -20 c2 -10 -3 -17 -12 -17 -18 0 -29 16
-21 31 9 14 29 6 33 -14z m3277 1 c0 -27 -15 -26 -33 0 -15 23 -15 24 9 20 15
-2 24 -10 24 -20z m-2727 -16 c2 -7 -3 -12 -12 -12 -9 0 -16 7 -16 16 0 17 22
14 28 -4z m2592 -3 c0 -14 -5 -19 -17 -17 -26 5 -29 38 -4 38 15 0 21 -6 21
-21z m-2712 -27 c2 -12 -1 -22 -7 -22 -13 0 -32 35 -24 44 12 12 28 0 31 -22z
m2579 12 c3 -9 0 -20 -8 -24 -15 -10 -39 6 -39 26 0 19 39 18 47 -2z m-3117
-34 c0 -11 -7 -20 -15 -20 -8 0 -15 9 -15 20 0 11 7 20 15 20 8 0 15 -9 15
-20z m420 0 c9 -17 8 -20 -9 -20 -22 0 -35 15 -26 30 10 16 23 12 35 -10z
m2557 -6 c8 -21 -13 -42 -28 -27 -13 13 -5 43 11 43 6 0 13 -7 17 -16z m1351
-22 c3 -16 -1 -20 -12 -16 -19 7 -22 48 -3 42 6 -3 13 -14 15 -26z m130 10 c3
-9 -2 -13 -14 -10 -9 1 -19 9 -22 16 -3 9 2 13 14 10 9 -1 19 -9 22 -16z
m-4519 -36 c-7 -20 -20 -36 -29 -36 -12 0 -12 2 -2 9 11 7 11 9 -1 14 -22 8
-10 45 17 49 29 5 30 4 15 -36z m208 27 c2 -6 -3 -13 -12 -16 -10 -5 -15 0
-15 14 0 21 21 22 27 2z m141 -6 c2 -10 -3 -17 -11 -17 -16 0 -30 24 -19 34
10 10 27 1 30 -17z m3920 0 c2 -10 -3 -17 -12 -17 -10 0 -16 9 -16 21 0 24 23
21 28 -4z m-320 -11 c3 -12 -1 -17 -10 -14 -7 3 -15 13 -16 22 -3 12 1 17 10
14 7 -3 15 -13 16 -22z m102 4 c9 -16 8 -20 -5 -20 -8 0 -15 9 -15 20 0 11 2
20 5 20 2 0 9 -9 15 -20z m108 -4 c3 -12 -1 -17 -10 -14 -7 3 -15 13 -16 22
-3 12 1 17 10 14 7 -3 15 -13 16 -22z m-323 -6 c0 -22 -29 -18 -33 3 -3 14 1
18 15 15 10 -2 18 -10 18 -18z m-3071 -5 c4 -10 -1 -15 -14 -15 -11 0 -20 7
-20 15 0 8 6 15 14 15 8 0 16 -7 20 -15z m2834 -8 c2 -10 -3 -17 -12 -17 -10
0 -16 9 -16 21 0 24 23 21 28 -4z m119 8 c3 -9 3 -19 -1 -22 -7 -7 -36 16 -36
28 0 15 30 10 37 -6z m-244 -8 c7 -19 -8 -41 -22 -33 -16 10 -14 46 3 46 8 0
16 -6 19 -13z m-3383 -12 c14 -16 6 -35 -16 -35 -8 0 -14 10 -14 25 0 28 12
32 30 10z m548 -8 c2 -12 -3 -17 -17 -17 -12 0 -21 6 -21 13 0 31 32 34 38 4z
m2702 9 c0 -2 3 -12 6 -21 5 -13 2 -16 -17 -13 -31 4 -39 38 -10 38 12 0 21
-2 21 -4z m-142 -18 c16 -16 15 -38 -2 -38 -18 0 -39 27 -31 40 8 13 18 13 33
-2z m-2680 -22 c3 -13 -1 -17 -14 -14 -11 2 -20 11 -22 22 -3 13 1 17 14 14
11 -2 20 -11 22 -22z m2550 -19 c3 -14 -1 -18 -20 -15 -12 2 -24 11 -26 21 -3
14 1 18 20 15 12 -2 24 -11 26 -21z m-2675 -8 c4 -15 1 -19 -11 -17 -21 4 -29
38 -9 38 8 0 17 -9 20 -21z m-469 -5 c9 -22 -3 -32 -14 -14 -12 19 -12 30 -1
30 5 0 12 -7 15 -16z m61 -9 c0 -11 -8 -21 -17 -23 -14 -3 -18 3 -18 23 0 20
4 26 18 23 9 -2 17 -12 17 -23z m4441 -22 c-7 -7 -36 16 -36 27 0 5 8 10 18
12 16 3 31 -27 18 -39z m-4302 28 c11 -17 -5 -39 -25 -34 -29 8 -23 43 7 43 7
0 15 -4 18 -9z m146 -21 c0 -11 -7 -20 -15 -20 -8 0 -15 9 -15 20 0 11 7 20
15 20 8 0 15 -9 15 -20z m530 5 c0 -8 -6 -15 -14 -15 -8 0 -16 7 -20 15 -4 10
1 15 14 15 11 0 20 -7 20 -15z m2130 11 c0 -2 3 -11 6 -20 4 -12 0 -16 -15
-16 -14 0 -21 6 -21 20 0 11 7 20 15 20 8 0 15 -2 15 -4z m1377 -11 c3 -9 3
-18 1 -21 -9 -9 -38 8 -38 22 0 19 29 18 37 -1z m-329 -18 c2 -10 -3 -17 -12
-17 -10 0 -16 9 -16 21 0 24 23 21 28 -4z m207 5 c0 -18 -20 -15 -23 4 -3 10
1 15 10 12 7 -3 13 -10 13 -16z m-3285 -2 c0 -5 -4 -10 -10 -10 -5 0 -10 5
-10 10 0 6 5 10 10 10 6 0 10 -4 10 -10z m2963 -10 c4 -15 0 -20 -14 -20 -12
0 -19 7 -19 20 0 11 6 20 14 20 7 0 16 -9 19 -20z m217 5 c0 -8 -4 -15 -9 -15
-5 0 -11 7 -15 15 -3 9 0 15 9 15 8 0 15 -7 15 -15z m-3403 -10 c3 -9 3 -18 1
-21 -9 -9 -38 8 -38 22 0 19 29 18 37 -1z m2941 3 c17 -17 15 -38 -3 -38 -16
0 -38 34 -28 44 9 9 18 7 31 -6z m125 -2 c3 -8 3 -17 0 -20 -7 -7 -33 13 -33
25 0 15 27 10 33 -5z m-243 -27 c0 -10 -7 -19 -15 -19 -9 0 -15 9 -15 25 0 18
4 23 15 19 8 -4 15 -15 15 -25z m-2946 -19 c-14 -14 -39 14 -29 31 5 8 12 6
23 -5 11 -11 13 -19 6 -26z m2816 9 c0 -20 -24 -26 -35 -9 -4 6 -4 17 -1 25 7
20 36 7 36 -16z m-3355 1 c3 -5 1 -10 -4 -10 -6 0 -11 5 -11 10 0 6 2 10 4 10
3 0 8 -4 11 -10z m423 -14 c3 -13 -1 -17 -14 -14 -11 2 -20 11 -22 22 -3 13 1
17 14 14 11 -2 20 -11 22 -22z m2800 -4 c3 -17 -2 -22 -17 -22 -16 0 -21 6
-21 26 0 33 33 30 38 -4z m-3088 -7 c0 -8 -4 -15 -10 -15 -5 0 -10 7 -10 15 0
8 5 15 10 15 6 0 10 -7 10 -15z m158 -13 c2 -14 -2 -22 -12 -22 -19 0 -29 17
-22 36 8 22 30 12 34 -14z m2787 3 c0 -11 -8 -21 -17 -23 -14 -3 -18 3 -18 23
0 20 4 26 18 23 9 -2 17 -12 17 -23z m-2257 -19 c3 -12 -1 -17 -10 -14 -7 3
-15 13 -16 22 -3 12 1 17 10 14 7 -3 15 -13 16 -22z m2113 14 c28 -15 24 -40
-6 -40 -20 0 -25 5 -25 25 0 28 3 29 31 15z m-2006 -10 c3 -5 2 -10 -4 -10 -5
0 -13 5 -16 10 -3 6 -2 10 4 10 5 0 13 -4 16 -10z m-225 -29 c0 -4 -3 -11 -7
-14 -9 -9 -33 12 -33 30 0 11 4 11 20 3 11 -6 20 -14 20 -19z m3620 5 c0 -7
-3 -16 -7 -19 -7 -8 -33 25 -27 35 7 11 34 -2 34 -16z m-4150 -6 c0 -11 -6
-20 -14 -20 -18 0 -29 16 -21 30 11 18 35 11 35 -10z m4030 -11 c0 -12 -27
-11 -35 1 -11 17 5 32 21 19 8 -6 14 -15 14 -20z m-216 5 c8 -22 8 -24 -8 -24
-15 0 -28 24 -19 34 11 10 21 7 27 -10z m106 -10 c0 -8 -4 -14 -9 -14 -11 0
-22 26 -14 34 9 9 23 -3 23 -20z m-2956 -64 l6 -65 -25 48 c-13 27 -29 55 -35
62 -12 15 3 30 20 20 6 -3 10 -1 10 6 0 8 3 9 9 4 5 -6 11 -39 15 -75z m1671
55 c0 -28 -29 -25 -33 3 -3 19 0 23 15 20 10 -2 18 -12 18 -23z m1063 2 c2
-10 -3 -17 -11 -17 -16 0 -30 24 -19 34 10 10 27 1 30 -17z m-115 -2 c7 -16
-8 -29 -23 -20 -15 9 -12 35 4 35 8 0 16 -7 19 -15z m-3305 -18 c2 -10 -3 -17
-12 -17 -10 0 -16 9 -16 21 0 24 23 21 28 -4z m3182 3 c0 -11 -7 -20 -15 -20
-8 0 -15 2 -15 4 0 2 -3 11 -6 20 -4 12 0 16 15 16 14 0 21 -6 21 -20z m-3297
-9 c6 -24 0 -31 -19 -24 -18 7 -18 43 0 43 7 0 16 -9 19 -19z m3175 -4 c2 -11
-3 -17 -16 -17 -20 0 -36 23 -24 34 11 12 37 1 40 -17z m-138 9 c0 -2 3 -11 6
-20 4 -12 0 -16 -15 -16 -14 0 -21 6 -21 20 0 11 7 20 15 20 8 0 15 -2 15 -4z
m-2520 -21 c7 -9 10 -18 7 -21 -10 -11 -37 5 -37 21 0 19 14 19 30 0z m2390 0
c13 -16 6 -35 -15 -35 -12 0 -25 21 -25 41 0 14 26 11 40 -6z m-3036 -21 c18
-17 13 -34 -10 -34 -8 0 -14 10 -14 25 0 29 3 30 24 9z m524 -8 c3 -12 -1 -17
-10 -14 -7 3 -15 13 -16 22 -3 12 1 17 10 14 7 -3 15 -13 16 -22z m2382 -1 c0
-25 -23 -35 -35 -15 -10 16 2 40 20 40 9 0 15 -9 15 -25z m-2494 -6 c7 -12
-15 -31 -28 -23 -4 3 -8 12 -8 20 0 17 26 19 36 3z m2362 -17 c2 -14 -2 -22
-11 -22 -19 0 -40 26 -32 40 11 18 40 6 43 -18z m-138 -23 c0 -12 -7 -19 -19
-19 -22 0 -34 23 -19 38 15 15 38 3 38 -19z m-2742 -2 c2 -12 -3 -17 -17 -17
-15 0 -21 6 -21 21 0 25 33 22 38 -4z m3910 1 c18 -18 15 -28 -8 -28 -13 0
-20 7 -20 20 0 23 10 26 28 8z m102 -14 c0 -8 -4 -12 -10 -9 -5 3 -10 13 -10
21 0 8 5 12 10 9 6 -3 10 -13 10 -21z m110 16 c0 -5 -2 -10 -4 -10 -3 0 -8 5
-11 10 -3 6 -1 10 4 10 6 0 11 -4 11 -10z m-3442 -23 c4 -19 -6 -21 -27 -8
-16 10 -5 34 12 28 7 -2 13 -11 15 -20z m3116 -17 c-14 -14 -39 14 -29 31 5 8
12 6 23 -5 11 -11 13 -19 6 -26z m-3524 15 c0 -8 -7 -15 -15 -15 -8 0 -15 7
-15 15 0 8 7 15 15 15 8 0 15 -7 15 -15z m534 0 c4 -10 -1 -15 -14 -15 -11 0
-20 7 -20 15 0 8 6 15 14 15 8 0 16 -7 20 -15z m2874 -8 c2 -10 -3 -17 -11
-17 -16 0 -30 24 -19 34 10 10 27 1 30 -17z m-3528 -7 c6 -11 7 -20 3 -21 -4
0 2 -4 15 -9 26 -11 31 -43 5 -38 -17 3 -51 53 -52 76 -1 19 17 14 29 -8z
m2448 -2 c-4 -27 -23 -34 -32 -13 -8 21 1 35 20 35 10 0 14 -8 12 -22z m958 7
c3 -8 3 -19 0 -24 -10 -16 -36 -1 -36 20 0 22 28 26 36 4z m-128 -18 c2 -10
-3 -17 -12 -17 -18 0 -29 16 -21 31 9 14 29 6 33 -14z m-3000 -10 c4 -19 -6
-21 -27 -8 -16 10 -5 34 12 28 7 -2 13 -11 15 -20z m2875 3 c6 -23 -4 -33 -26
-24 -12 4 -15 18 -8 42 4 11 30 -2 34 -18z m-125 -18 c3 -17 -2 -22 -17 -22
-14 0 -21 6 -21 18 0 38 33 41 38 4z m-3143 -3 c0 -7 -8 -15 -17 -17 -18 -3
-25 18 -11 32 10 10 28 1 28 -15z m3004 -15 c10 -22 9 -25 -6 -22 -10 2 -19
13 -21 26 -5 30 12 28 27 -4z m-2449 -10 c0 -16 -16 -19 -25 -4 -8 13 4 32 16
25 5 -4 9 -13 9 -21z m2320 -3 c0 -23 -9 -31 -26 -24 -14 5 -19 34 -8 46 11
10 34 -5 34 -22z m-2440 -1 c0 -11 -7 -20 -15 -20 -15 0 -21 21 -8 33 12 13
23 7 23 -13z m297 5 c3 -9 3 -19 -1 -22 -8 -9 -37 18 -30 28 8 14 24 11 31 -6z
m1723 -5 c0 -15 -7 -20 -25 -20 -27 0 -28 1 -19 24 9 24 44 20 44 -4z m-2142
-7 c-2 -10 -10 -18 -18 -18 -8 0 -16 8 -18 18 -2 12 3 17 18 17 15 0 20 -5 18
-17z m2417 -4 c4 -6 5 -12 2 -15 -7 -7 -37 7 -37 17 0 13 27 11 35 -2z m-2695
-40 c0 -12 -27 -11 -35 1 -11 17 5 32 21 19 8 -6 14 -15 14 -20z m153 25 c9
-10 -4 -34 -18 -34 -17 0 -28 17 -20 30 7 11 28 13 38 4z m3807 -15 c0 -11 -4
-17 -10 -14 -5 3 -10 13 -10 21 0 8 5 14 10 14 6 0 10 -9 10 -21z m-103 -4 c9
-25 -4 -29 -17 -6 -7 15 -7 21 0 21 6 0 13 -7 17 -15z m-3537 -10 c0 -16 -27
-32 -37 -22 -3 4 -3 13 0 22 8 20 37 20 37 0z m125 5 c3 -5 -1 -10 -9 -10 -9
0 -16 5 -16 10 0 6 4 10 9 10 6 0 13 -4 16 -10z m144 -19 c-3 -6 -10 -7 -18
-2 -7 5 -10 14 -6 21 9 14 29 -2 24 -19z m3041 10 c6 -12 6 -22 1 -25 -12 -8
-43 23 -36 35 10 15 24 10 35 -10z m117 4 c3 -9 3 -19 -1 -22 -7 -7 -36 16
-36 28 0 15 30 10 37 -6z m-361 -44 c-12 -18 -36 0 -36 27 l0 26 21 -21 c12
-11 18 -26 15 -32z m118 33 c7 -19 -2 -37 -15 -29 -12 8 -12 45 0 45 5 0 12
-7 15 -16z m-1104 -4 c0 -5 -4 -10 -10 -10 -5 0 -10 5 -10 10 0 6 5 10 10 10
6 0 10 -4 10 -10z m854 -16 c9 -24 7 -34 -8 -34 -13 0 -26 20 -26 41 0 15 27
10 34 -7z m-3174 -3 c0 -5 -13 -11 -30 -13 -16 -3 -30 -1 -30 3 0 7 10 10 53
18 4 0 7 -3 7 -8z m3044 -14 c13 -20 5 -30 -18 -21 -9 3 -16 15 -16 26 0 22
18 20 34 -5z m-2921 -7 c16 -19 16 -20 -13 -20 -30 0 -46 13 -35 30 10 16 29
12 48 -10z m157 -9 c0 -26 -17 -36 -36 -20 -14 12 -14 14 2 26 25 18 34 16 34
-6z m1930 15 c0 -3 -4 -8 -10 -11 -5 -3 -10 -1 -10 4 0 6 5 11 10 11 6 0 10
-2 10 -4z m-1800 -10 c0 -3 -4 -8 -10 -11 -5 -3 -10 -1 -10 4 0 6 5 11 10 11
6 0 10 -2 10 -4z m108 -23 c2 -8 -5 -13 -17 -13 -12 0 -21 6 -21 16 0 18 31
15 38 -3z m122 -51 c-17 -6 -44 24 -35 39 6 9 13 6 27 -12 14 -16 16 -25 8
-27z m-252 -10 c2 -7 -3 -12 -12 -12 -9 0 -16 7 -16 16 0 17 22 14 28 -4z
m3292 -2 c0 -11 -4 -20 -10 -20 -5 0 -10 2 -10 4 0 2 -3 11 -6 20 -4 11 -1 16
10 16 9 0 16 -8 16 -20z m110 4 c0 -8 -4 -12 -10 -9 -5 3 -10 10 -10 16 0 5 5
9 10 9 6 0 10 -7 10 -16z m-3280 2 c0 -2 3 -11 6 -20 4 -11 1 -16 -10 -16 -9
0 -16 2 -16 4 0 2 -3 11 -6 20 -4 11 -1 16 10 16 9 0 16 -2 16 -4z m3058 -19
c2 -10 -3 -17 -12 -17 -9 0 -16 2 -16 4 0 2 -3 12 -6 21 -5 13 -2 16 12 13 10
-2 20 -11 22 -21z m-118 -1 c0 -21 -21 -31 -31 -15 -14 22 -11 29 11 29 11 0
20 -6 20 -14z m-130 -6 c0 -5 -4 -10 -9 -10 -6 0 -13 5 -16 10 -3 6 1 10 9 10
9 0 16 -4 16 -10z m-2680 -36 c0 -18 -14 -18 -30 1 -16 19 -3 40 16 24 8 -6
14 -18 14 -25z m-130 -24 c9 -16 8 -22 -6 -27 -16 -6 -34 11 -34 35 0 19 28
14 40 -8z m230 -19 c7 -13 7 -22 0 -26 -15 -9 -30 4 -30 26 0 25 16 25 30 0z
m-100 -40 c0 -4 -3 -11 -7 -14 -9 -9 -33 12 -33 30 0 11 4 11 20 3 11 -6 20
-14 20 -19z m3048 -4 c2 -10 -3 -17 -12 -17 -10 0 -16 9 -16 21 0 24 23 21 28
-4z m-2848 -28 c0 -6 -4 -7 -10 -4 -5 3 -10 11 -10 16 0 6 5 7 10 4 6 -3 10
-11 10 -16z m-100 -14 c0 -8 -4 -15 -10 -15 -5 0 -10 7 -10 15 0 8 5 15 10 15
6 0 10 -7 10 -15z m-112 -29 c3 -12 -1 -17 -10 -14 -7 3 -15 13 -16 22 -3 12
1 17 10 14 7 -3 15 -13 16 -22z m227 6 c6 -4 16 -15 23 -24 12 -15 10 -16 -15
-14 -20 2 -29 9 -31 25 -3 21 5 27 23 13z m4725 -22 c0 -5 -2 -10 -4 -10 -3 0
-8 5 -11 10 -3 6 -1 10 4 10 6 0 11 -4 11 -10z m-4832 -49 c3 -8 -1 -12 -9 -9
-7 2 -15 10 -17 17 -3 8 1 12 9 9 7 -2 15 -10 17 -17z m116 -27 c9 -23 8 -24
-14 -24 -11 0 -20 2 -20 4 0 12 13 36 20 36 4 0 11 -7 14 -16z m-116 -26 c18
-18 15 -28 -8 -28 -11 0 -20 2 -20 4 0 2 -3 11 -6 20 -7 19 16 22 34 4z m1770
-16 c2 -7 -3 -12 -12 -12 -9 0 -16 7 -16 16 0 17 22 14 28 -4z m-1660 -54 c-2
-13 -7 -23 -13 -23 -5 0 -11 10 -13 23 -2 15 2 22 13 22 11 0 15 -7 13 -22z
m1519 -14 c-3 -3 -12 -4 -19 -1 -8 3 -5 6 6 6 11 1 17 -2 13 -5z m3493 -24 c0
-5 -7 -10 -15 -10 -8 0 -15 5 -15 10 0 6 7 10 15 10 8 0 15 -4 15 -10z m-247
-15 c1 -5 -6 -11 -15 -13 -11 -2 -18 3 -18 13 0 17 30 18 33 0z m-4653 -16 c0
-24 -23 -21 -28 4 -2 10 3 17 12 17 10 0 16 -9 16 -21z m4330 17 c0 -3 -4 -8
-10 -11 -5 -3 -10 -1 -10 4 0 6 5 11 10 11 6 0 10 -2 10 -4z m-4440 -43 c0
-24 -25 -9 -28 17 -3 21 -2 22 12 11 9 -7 16 -20 16 -28z m4430 -13 c0 -5 -7
-10 -15 -10 -8 0 -15 5 -15 10 0 6 7 10 15 10 8 0 15 -4 15 -10z m-4322 -49
c3 -8 -1 -12 -9 -9 -7 2 -15 10 -17 17 -3 8 1 12 9 9 7 -2 15 -10 17 -17z
m519 -3 c-3 -8 -6 -5 -6 6 -1 11 2 17 5 13 3 -3 4 -12 1 -19z m3658 -8 c-3 -5
-11 -10 -16 -10 -6 0 -7 5 -4 10 3 6 11 10 16 10 6 0 7 -4 4 -10z m1085 -26
c0 -2 -7 -4 -15 -4 -8 0 -15 4 -15 10 0 5 7 7 15 4 8 -4 15 -8 15 -10z m-4870
-4 c0 -5 -4 -10 -10 -10 -5 0 -10 5 -10 10 0 6 5 10 10 10 6 0 10 -4 10 -10z
m318 -38 c2 -15 -2 -22 -12 -22 -11 0 -16 9 -16 26 0 31 23 28 28 -4z m312 3
c0 -16 -27 -32 -37 -22 -3 4 -3 13 0 22 8 20 37 20 37 0z m-1020 -11 c0 -8 -4
-12 -10 -9 -5 3 -10 10 -10 16 0 5 5 9 10 9 6 0 10 -7 10 -16z m4337 10 c-3
-3 -12 -4 -19 -1 -8 3 -5 6 6 6 11 1 17 -2 13 -5z m-3757 -45 c0 -10 -4 -19
-9 -19 -14 0 -33 28 -27 39 10 16 36 1 36 -20z m5045 21 c3 -5 1 -10 -4 -10
-6 0 -11 5 -11 10 0 6 2 10 4 10 3 0 8 -4 11 -10z m-4745 -40 c11 -11 17 -26
14 -35 -9 -21 -25 -19 -31 5 -3 11 -12 20 -19 20 -15 0 -19 12 -7 23 11 11 22
8 43 -13z m-432 -13 c2 -10 -3 -17 -12 -17 -10 0 -16 9 -16 21 0 24 23 21 28
-4z m2732 3 c0 -5 -2 -10 -4 -10 -3 0 -8 5 -11 10 -3 6 -1 10 4 10 6 0 11 -4
11 -10z m-2440 -46 c0 -8 -9 -14 -20 -14 -19 0 -27 19 -14 33 10 9 34 -4 34
-19z m-422 -7 c4 -19 -6 -21 -27 -8 -16 10 -5 34 12 28 7 -2 13 -11 15 -20z
m284 -22 c13 -17 9 -25 -11 -25 -22 0 -35 15 -26 30 7 12 27 9 37 -5z m1238
-5 c0 -5 -4 -10 -10 -10 -5 0 -10 5 -10 10 0 6 5 10 10 10 6 0 10 -4 10 -10z
m-1060 -25 c0 -8 -6 -15 -14 -15 -17 0 -28 14 -19 24 12 12 33 6 33 -9z m-310
-14 c0 -11 -4 -22 -9 -25 -12 -8 -34 21 -26 34 11 17 35 11 35 -9z m265 -1 c0
-8 -8 -16 -17 -18 -13 -2 -18 3 -18 18 0 15 5 20 18 18 9 -2 17 -10 17 -18z
m-368 -63 c-7 -21 -32 -13 -35 11 -3 21 -1 22 18 12 12 -6 19 -17 17 -23z
m343 3 c0 -5 -4 -10 -10 -10 -5 0 -10 5 -10 10 0 6 5 10 10 10 6 0 10 -4 10
-10z m-90 -9 c0 -14 -18 -23 -30 -16 -6 4 -8 11 -5 16 8 12 35 12 35 0z m56
-2 c10 -17 -13 -36 -27 -22 -12 12 -4 33 11 33 5 0 12 -5 16 -11z m-438 -27
c2 -7 -3 -12 -12 -12 -9 0 -16 7 -16 16 0 17 22 14 28 -4z m3877 8 c3 -5 -3
-10 -14 -10 -12 0 -21 5 -21 10 0 6 6 10 14 10 8 0 18 -4 21 -10z m861 -1 c9
-16 -12 -33 -31 -25 -14 5 -15 9 -5 21 15 18 26 19 36 4z m-4478 -37 c2 -15
-2 -22 -12 -22 -11 0 -16 9 -16 26 0 31 23 28 28 -4z m4592 -17 c0 -8 -4 -15
-9 -15 -13 0 -22 16 -14 24 11 11 23 6 23 -9z m-4717 -11 c3 -4 1 -16 -5 -28
-11 -20 -11 -20 -18 -1 -11 28 5 47 23 29z m3532 -34 c3 -5 1 -10 -4 -10 -6 0
-11 5 -11 10 0 6 2 10 4 10 3 0 8 -4 11 -10z m620 -10 c3 -5 1 -10 -4 -10 -6
0 -11 5 -11 10 0 6 2 10 4 10 3 0 8 -4 11 -10z m670 0 c3 -5 2 -10 -4 -10 -5
0 -13 5 -16 10 -3 6 -2 10 4 10 5 0 13 -4 16 -10z m-3262 -34 c6 -16 -2 -28
-14 -20 -12 7 -11 34 0 34 5 0 11 -6 14 -14z m2597 6 c0 -13 -12 -22 -22 -16
-10 6 -1 24 13 24 5 0 9 -4 9 -8z m-1490 -42 c0 -5 -4 -10 -10 -10 -5 0 -10 5
-10 10 0 6 5 10 10 10 6 0 10 -4 10 -10z m1715 -10 c7 -12 -2 -12 -30 0 -19 8
-19 9 2 9 12 1 25 -3 28 -9z m-4935 -36 c0 -14 -4 -23 -9 -20 -5 3 -7 15 -4
26 7 28 13 25 13 -6z m2305 16 c3 -5 1 -10 -4 -10 -6 0 -11 5 -11 10 0 6 2 10
4 10 3 0 8 -4 11 -10z m1045 -20 c0 -5 -7 -7 -15 -4 -8 4 -15 8 -15 10 0 2 7
4 15 4 8 0 15 -4 15 -10z m-1477 -40 c-3 -11 -9 -20 -14 -20 -10 0 -12 24 -2
33 13 13 21 7 16 -13z m87 -11 c0 -5 -7 -9 -15 -9 -8 0 -15 7 -15 15 0 9 6 12
15 9 8 -4 15 -10 15 -15z m2120 -10 c0 -5 -4 -9 -10 -9 -5 0 -10 7 -10 16 0 8
5 12 10 9 6 -3 10 -10 10 -16z m465 -39 c3 -5 -1 -10 -9 -10 -9 0 -16 5 -16
10 0 6 4 10 9 10 6 0 13 -4 16 -10z m-4555 -30 c0 -5 -5 -10 -11 -10 -5 0 -7
5 -4 10 3 6 8 10 11 10 2 0 4 -4 4 -10z m3213 -21 c-4 -13 -9 -17 -15 -11 -11
11 -3 32 12 32 4 0 6 -9 3 -21z m344 15 c-3 -3 -12 -4 -19 -1 -8 3 -5 6 6 6
11 1 17 -2 13 -5z m-57 -20 c0 -8 -4 -12 -10 -9 -5 3 -10 10 -10 16 0 5 5 9
10 9 6 0 10 -7 10 -16z m190 7 c0 -5 3 -17 7 -27 4 -11 3 -15 -4 -11 -14 9
-24 47 -12 47 5 0 9 -4 9 -9z m105 -11 c3 -5 -1 -10 -9 -10 -8 0 -18 5 -21 10
-3 6 1 10 9 10 8 0 18 -4 21 -10z m-1405 -10 c0 -5 -7 -7 -15 -4 -8 4 -15 8
-15 10 0 2 7 4 15 4 8 0 15 -4 15 -10z m795 -11 c11 -17 -1 -21 -15 -4 -8 9
-8 15 -2 15 6 0 14 -5 17 -11z m1375 -9 c0 -5 -2 -10 -4 -10 -3 0 -8 5 -11 10
-3 6 -1 10 4 10 6 0 11 -4 11 -10z m115 0 c3 -5 -1 -10 -10 -10 -9 0 -13 5
-10 10 3 6 8 10 10 10 2 0 7 -4 10 -10z m-2415 -41 c0 -5 -7 -9 -15 -9 -15 0
-20 12 -9 23 8 8 24 -1 24 -14z m-2590 1 c0 -5 -4 -10 -10 -10 -5 0 -10 5 -10
10 0 6 5 10 10 10 6 0 10 -4 10 -10z m3935 1 c-3 -5 4 -12 15 -16 11 -3 20
-10 20 -15 0 -5 -7 -6 -17 -3 -10 4 -14 2 -10 -4 4 -7 0 -10 -10 -9 -22 3 -24
56 -2 56 5 0 8 -4 4 -9z m135 -11 c0 -5 -5 -10 -11 -10 -5 0 -7 -4 -4 -10 3
-5 -3 -10 -14 -10 -23 0 -24 1 -15 24 7 17 44 22 44 6z m-680 -4 c0 -3 -4 -8
-10 -11 -5 -3 -10 -1 -10 4 0 6 5 11 10 11 6 0 10 -2 10 -4z m-775 -16 c3 -5
1 -10 -4 -10 -6 0 -11 5 -11 10 0 6 2 10 4 10 3 0 8 -4 11 -10z m2179 -35 c-4
-8 -11 -15 -16 -15 -6 0 -5 6 2 15 7 8 14 15 16 15 2 0 1 -7 -2 -15z m-2324
-10 c0 -8 -4 -15 -10 -15 -5 0 -10 7 -10 15 0 8 5 15 10 15 6 0 10 -7 10 -15z
m1572 -4 c20 -23 13 -65 -9 -57 -9 4 -17 -1 -20 -13 -5 -21 -34 -33 -53 -21
-17 11 -4 60 15 60 9 0 21 11 27 25 14 30 19 31 40 6z m23 9 c3 -5 1 -10 -4
-10 -6 0 -11 5 -11 10 0 6 2 10 4 10 3 0 8 -4 11 -10z m-1925 -27 c0 -20 -3
-24 -11 -16 -7 7 -9 19 -6 27 10 24 17 19 17 -11z m1850 15 c0 -4 -6 -8 -14
-8 -8 0 -17 4 -20 8 -2 4 4 8 15 8 10 0 19 -4 19 -8z m107 -24 c-9 -9 -28 6
-21 18 4 6 10 6 17 -1 6 -6 8 -13 4 -17z m-1877 -15 c0 -11 -4 -17 -10 -14 -5
3 -10 13 -10 21 0 8 5 14 10 14 6 0 10 -9 10 -21z m1044 0 c-3 -5 -10 -7 -15
-3 -5 3 -7 10 -3 15 3 5 10 7 15 3 5 -3 7 -10 3 -15z m-1624 -19 c0 -5 -2 -10
-4 -10 -3 0 -8 5 -11 10 -3 6 -1 10 4 10 6 0 11 -4 11 -10z m2757 -20 c-1 -20
-8 -25 -20 -14 -3 3 0 12 6 20 16 17 16 17 14 -6z m-1207 0 c0 -5 -5 -10 -11
-10 -5 0 -7 5 -4 10 3 6 8 10 11 10 2 0 4 -4 4 -10z m-907 -25 c4 -8 3 -16 -1
-19 -13 -8 -35 11 -28 23 10 15 23 14 29 -4z m2017 0 c0 -8 5 -15 10 -15 6 0
10 6 10 13 0 8 4 7 10 -3 19 -30 12 -38 -30 -30 -22 4 -41 6 -41 4 -1 -2 -2
-9 -3 -14 0 -6 -7 -15 -15 -19 -17 -11 3 -25 24 -17 8 3 15 1 15 -5 0 -7 -12
-9 -30 -7 -27 4 -29 2 -23 -20 4 -17 2 -23 -6 -18 -7 5 -11 -4 -11 -26 0 -28
-4 -33 -25 -34 -18 -1 -25 3 -25 16 0 29 -11 50 -26 50 -8 0 -14 -5 -14 -12 0
-6 -3 -8 -6 -5 -4 4 -1 13 6 22 12 14 15 14 31 -1 17 -15 18 -15 13 17 -3 19
-2 50 3 69 8 29 13 34 34 32 13 -2 26 -8 27 -13 2 -5 8 -9 14 -9 6 0 8 6 5 14
-7 19 1 26 30 26 14 0 23 -6 23 -15z m-1925 -15 c-5 -15 -2 -20 12 -21 17 -1
17 -2 1 -6 -10 -2 -18 -10 -18 -16 0 -7 -7 -3 -16 8 -8 11 -19 21 -24 21 -24
3 -24 6 0 19 36 21 53 19 45 -5z m89 0 c20 -7 26 -16 26 -40 0 -16 -5 -30 -11
-30 -5 0 -8 4 -5 9 4 5 0 12 -6 14 -10 4 -10 8 2 16 12 8 9 12 -13 20 -15 6
-27 13 -27 16 0 7 5 6 34 -5z m156 -26 c-6 -14 -10 -36 -10 -50 0 -24 -14 -32
-25 -14 -3 6 -11 10 -16 10 -6 0 -8 -4 -5 -9 3 -5 -1 -11 -9 -15 -8 -3 -15
-15 -15 -26 0 -23 -15 -27 -24 -5 -3 8 -1 15 5 15 7 0 10 14 7 35 -3 27 0 35
12 35 10 0 8 6 -10 20 l-25 20 26 0 c23 0 53 -20 46 -31 -1 -2 9 6 22 19 30
28 33 28 21 -4z m105 -12 c-8 -8 -25 10 -25 26 0 13 2 13 14 -4 8 -10 13 -21
11 -22z m-435 8 c0 -6 7 -10 16 -8 10 2 19 -2 21 -8 3 -10 -13 -11 -49 -5 -12
2 -9 31 2 31 6 0 10 -5 10 -10z m-1110 -10 c0 -5 -2 -10 -4 -10 -3 0 -8 5 -11
10 -3 6 -1 10 4 10 6 0 11 -4 11 -10z m1610 -11 c0 -5 -4 -9 -10 -9 -5 0 -10
7 -10 16 0 8 5 12 10 9 6 -3 10 -10 10 -16z m-3230 -19 c0 -5 -4 -10 -10 -10
-5 0 -10 5 -10 10 0 6 5 10 10 10 6 0 10 -4 10 -10z m945 -21 c10 -14 1 -21
-19 -13 -9 3 -13 10 -10 15 7 12 21 11 29 -2z m2005 -9 c0 -5 -2 -10 -4 -10
-3 0 -8 5 -11 10 -3 6 -1 10 4 10 6 0 11 -4 11 -10z m210 -5 c0 -8 -7 -15 -15
-15 -16 0 -20 12 -8 23 11 12 23 8 23 -8z m-3024 -42 c-10 -26 -18 -8 -9 23 5
21 8 24 11 11 2 -10 1 -25 -2 -34z m4364 37 c0 -5 -2 -10 -4 -10 -3 0 -8 5
-11 10 -3 6 -1 10 4 10 6 0 11 -4 11 -10z m180 -90 c0 -5 -2 -10 -4 -10 -3 0
-8 5 -11 10 -3 6 -1 10 4 10 6 0 11 -4 11 -10z m57 4 c-3 -3 -12 -4 -19 -1 -8
3 -5 6 6 6 11 1 17 -2 13 -5z m-572 -13 c6 -1 3 -6 -5 -11 -22 -14 -60 -12
-60 3 0 11 23 14 65 8z m175 -31 c9 -17 8 -20 -9 -20 -22 0 -35 15 -26 30 10
16 23 12 35 -10z m-3340 0 c0 -5 -4 -10 -10 -10 -5 0 -10 5 -10 10 0 6 5 10
10 10 6 0 10 -4 10 -10z m557 -22 c-3 -8 -6 -5 -6 6 -1 11 2 17 5 13 3 -3 4
-12 1 -19z m-527 0 c0 -17 -18 -44 -24 -37 -8 7 5 49 15 49 5 0 9 -6 9 -12z
m2040 2 c0 -5 -4 -10 -10 -10 -5 0 -10 5 -10 10 0 6 5 10 10 10 6 0 10 -4 10
-10z m-2367 -20 c-3 -11 -7 -20 -9 -20 -2 0 -4 9 -4 20 0 11 4 20 9 20 5 0 7
-9 4 -20z m24 -37 c-3 -10 -5 -4 -5 12 0 17 2 24 5 18 2 -7 2 -21 0 -30z
m2243 18 c0 -5 -7 -11 -15 -15 -9 -3 -15 0 -15 9 0 8 7 15 15 15 8 0 15 -4 15
-9z m1429 -8 c15 -14 16 -20 6 -30 -6 -6 -18 -8 -25 -3 -9 5 -9 9 -1 15 9 5 9
10 0 21 -16 20 -2 17 20 -3z m-2333 -20 c-10 -10 -19 5 -10 18 6 11 8 11 12 0
2 -7 1 -15 -2 -18z m-386 -4 c0 -6 -7 -17 -15 -25 -13 -14 -15 -13 -15 4 0 10
3 22 7 25 10 11 23 8 23 -4z m480 1 c0 -5 -4 -10 -10 -10 -5 0 -10 5 -10 10 0
6 5 10 10 10 6 0 10 -4 10 -10z m2130 0 c0 -5 -12 -10 -26 -10 -14 0 -23 4
-19 10 3 6 15 10 26 10 10 0 19 -4 19 -10z m-1889 -33 c7 -25 6 -26 -13 -16
-17 9 -18 13 -7 20 10 6 11 9 2 9 -7 0 -13 5 -13 11 0 21 24 2 31 -24z m-574
-9 c-3 -7 -5 -2 -5 12 0 14 2 19 5 13 2 -7 2 -19 0 -25z m1456 0 c-9 -50 -25
-60 -19 -13 2 22 5 41 5 43 1 1 5 2 11 2 5 0 7 -14 3 -32z m-1373 1 c0 -5 -11
-9 -25 -9 -24 0 -32 10 -19 22 8 8 44 -3 44 -13z m-1746 -4 c-4 -8 -8 -15 -10
-15 -2 0 -4 7 -4 15 0 8 4 15 10 15 5 0 7 -7 4 -15z m2883 9 c-3 -3 -12 -4
-19 -1 -8 3 -5 6 6 6 11 1 17 -2 13 -5z m1369 -9 c23 -12 25 -15 11 -21 -17
-6 -47 11 -47 27 0 12 3 11 36 -6z m-126 -5 c0 -5 -2 -10 -4 -10 -3 0 -8 5
-11 10 -3 6 -1 10 4 10 6 0 11 -4 11 -10z m-70 -72 c0 -13 -23 -5 -28 10 -2 7
2 10 12 6 9 -3 16 -11 16 -16z m40 12 c0 -5 -2 -10 -4 -10 -3 0 -8 5 -11 10
-3 6 -1 10 4 10 6 0 11 -4 11 -10z m-3830 -25 c0 -8 -4 -15 -10 -15 -5 0 -10
7 -10 15 0 8 5 15 10 15 6 0 10 -7 10 -15z m1165 5 c3 -5 1 -10 -4 -10 -6 0
-11 5 -11 10 0 6 2 10 4 10 3 0 8 -4 11 -10z m2440 0 c3 -5 1 -10 -4 -10 -6 0
-11 5 -11 10 0 6 2 10 4 10 3 0 8 -4 11 -10z m295 -9 c0 -11 -4 -22 -9 -25 -5
-3 -8 5 -7 19 1 29 16 34 16 6z m-2270 -41 c0 -5 -4 -10 -10 -10 -5 0 -10 5
-10 10 0 6 5 10 10 10 6 0 10 -4 10 -10z m-100 -10 c0 -5 -4 -10 -10 -10 -5 0
-10 5 -10 10 0 6 5 10 10 10 6 0 10 -4 10 -10z m-46 -34 c-6 -16 -8 -17 -16
-2 -11 19 0 42 13 29 6 -6 7 -18 3 -27z m1356 30 c0 -3 -4 -8 -10 -11 -5 -3
-10 -1 -10 4 0 6 5 11 10 11 6 0 10 -2 10 -4z m-880 -37 c0 -6 -4 -7 -10 -4
-5 3 -10 11 -10 16 0 6 5 7 10 4 6 -3 10 -11 10 -16z m-180 -14 c0 -8 -4 -15
-10 -15 -5 0 -7 7 -4 15 4 8 8 15 10 15 2 0 4 -7 4 -15z m360 5 c0 -5 -2 -10
-4 -10 -3 0 -8 5 -11 10 -3 6 -1 10 4 10 6 0 11 -4 11 -10z m340 -30 c0 -5 7
-10 15 -10 17 0 19 -9 5 -30 -7 -11 -11 -9 -19 12 -5 14 -16 28 -23 31 -8 4
-7 6 5 6 9 1 17 -3 17 -9z m917 -12 c-3 -8 -6 -5 -6 6 -1 11 2 17 5 13 3 -3 4
-12 1 -19z m-1370 -10 c-3 -8 -6 -5 -6 6 -1 11 2 17 5 13 3 -3 4 -12 1 -19z
m1423 6 c0 -8 -4 -12 -10 -9 -5 3 -10 10 -10 16 0 5 5 9 10 9 6 0 10 -7 10
-16z m-2073 -20 c-9 -9 -28 6 -21 18 4 6 10 6 17 -1 6 -6 8 -13 4 -17z m337
-9 c-4 -8 -8 -15 -10 -15 -2 0 -4 7 -4 15 0 8 4 15 10 15 5 0 7 -7 4 -15z
m401 5 c-3 -5 -11 -10 -16 -10 -6 0 -7 5 -4 10 3 6 11 10 16 10 6 0 7 -4 4
-10z m1285 0 c0 -5 -4 -10 -10 -10 -5 0 -10 5 -10 10 0 6 5 10 10 10 6 0 10
-4 10 -10z m-1900 -10 c0 -5 -2 -10 -4 -10 -3 0 -8 5 -11 10 -3 6 -1 10 4 10
6 0 11 -4 11 -10z m-1110 -10 c0 -5 -5 -10 -11 -10 -5 0 -7 5 -4 10 3 6 8 10
11 10 2 0 4 -4 4 -10z m770 6 c0 -3 -4 -8 -10 -11 -5 -3 -10 -1 -10 4 0 6 5
11 10 11 6 0 10 -2 10 -4z m586 -33 c-11 -11 -17 4 -9 23 7 18 8 18 11 1 2
-10 1 -21 -2 -24z m-296 -7 c-16 -15 -24 -17 -27 -8 -3 6 -11 12 -19 12 -8 0
-14 4 -14 9 0 5 8 7 19 4 10 -3 22 0 25 6 4 5 14 7 22 4 13 -5 12 -9 -6 -27z
m600 14 c0 -5 -8 -10 -17 -10 -15 0 -16 2 -3 10 19 12 20 12 20 0z m-351 -12
c0 -7 -4 -22 -9 -33 -7 -17 -9 -15 -9 13 -1 17 4 32 9 32 6 0 10 -6 9 -12z
m141 2 c0 -5 -4 -10 -10 -10 -5 0 -10 5 -10 10 0 6 5 10 10 10 6 0 10 -4 10
-10z m430 0 c0 -5 -5 -10 -11 -10 -5 0 -7 5 -4 10 3 6 8 10 11 10 2 0 4 -4 4
-10z m-1288 -25 c-2 -14 -6 -25 -8 -25 -2 0 -4 11 -4 25 0 14 4 25 9 25 4 0 6
-11 3 -25z m1247 -29 c1 -5 -2 -6 -6 -3 -3 4 -12 -1 -20 -11 -12 -15 -13 -14
-7 13 10 43 16 51 25 29 4 -10 8 -23 8 -28z m-143 -11 c-8 -8 -18 -15 -22 -15
-3 0 -1 7 6 15 7 8 17 15 22 15 5 0 3 -7 -6 -15z m-1306 -30 c0 -19 -4 -35 -9
-35 -4 0 -7 10 -6 23 1 12 3 28 4 35 3 27 11 10 11 -23z m1370 -19 c-14 -14
-24 0 -16 21 6 15 8 15 16 3 6 -9 5 -19 0 -24z m-940 -1 c0 -8 -4 -15 -10 -15
-5 0 -10 -8 -10 -17 0 -9 -2 -14 -5 -11 -9 8 6 58 16 58 5 0 9 -7 9 -15z
m-504 -21 c-4 -9 -9 -15 -11 -12 -3 3 -3 13 1 22 4 9 9 15 11 12 3 -3 3 -13
-1 -22z m297 -2 c-3 -12 -9 -22 -14 -22 -12 0 -11 7 2 32 13 25 20 19 12 -10z
m148 -45 c-13 -13 -15 15 -3 53 7 24 7 23 10 -9 2 -18 -1 -38 -7 -44z m-344
41 c-3 -8 -6 -5 -6 6 -1 11 2 17 5 13 3 -3 4 -12 1 -19z m853 -8 c0 -5 -4 -10
-10 -10 -5 0 -10 5 -10 10 0 6 5 10 10 10 6 0 10 -4 10 -10z m67 -52 c-3 -8
-6 -5 -6 6 -1 11 2 17 5 13 3 -3 4 -12 1 -19z m-97 -38 c0 -5 -5 -10 -11 -10
-5 0 -7 5 -4 10 3 6 8 10 11 10 2 0 4 -4 4 -10z"/>
<path d="M7160 8587 c-30 -4 -93 -14 -140 -22 -47 -8 -95 -15 -107 -15 -13 0
-23 -4 -23 -10 0 -12 -20 -13 183 9 94 11 205 23 245 26 40 4 71 9 68 12 -8 8
-169 9 -226 0z"/>
<path d="M6855 8530 c-3 -5 -1 -10 4 -10 6 0 11 5 11 10 0 6 -2 10 -4 10 -3 0
-8 -4 -11 -10z"/>
<path d="M7215 8353 c-87 -5 -216 -24 -233 -33 -10 -5 -38 -14 -64 -22 -27 -7
-48 -16 -48 -20 0 -4 -22 -19 -49 -33 -64 -32 -151 -120 -151 -152 l0 -24 37
26 c21 14 42 25 48 25 5 0 36 25 69 55 64 61 162 114 224 122 l41 5 -16 -49
c-30 -94 -1 -172 83 -224 70 -43 210 -19 279 48 35 34 78 46 109 31 18 -10 17
-11 -8 -32 -34 -26 -28 -45 24 -81 53 -37 94 -28 116 23 8 20 16 45 18 55 1
10 9 22 16 27 12 7 11 12 -4 29 -11 12 -14 21 -8 21 7 0 14 11 18 24 8 33 -41
117 -62 109 -11 -4 -15 0 -12 13 2 16 -3 19 -32 20 -41 1 -154 15 -240 30 -46
7 -105 10 -155 7z m12 -88 c7 -21 3 -24 -36 -27 -27 -2 -35 1 -42 20 -8 21 -6
22 32 22 26 0 42 -5 46 -15z"/>
<path d="M6470 8250 c0 -5 5 -10 11 -10 5 0 7 5 4 10 -3 6 -8 10 -11 10 -2 0
-4 -4 -4 -10z"/>
<path d="M6236 8143 c-11 -11 -6 -97 8 -143 30 -98 89 -220 179 -375 40 -69
97 -153 97 -143 0 3 -26 56 -58 119 -32 63 -71 146 -87 184 -16 39 -32 75 -35
80 -21 32 -41 108 -32 117 6 6 8 17 5 26 -5 12 -1 14 23 7 16 -4 41 -7 57 -7
15 -1 27 -5 27 -10 0 -5 20 -7 44 -6 24 2 42 8 41 13 -2 6 -6 19 -11 30 -10
28 -11 32 -13 55 0 11 -8 20 -17 20 -8 0 -12 -4 -9 -10 3 -5 1 -10 -4 -10 -6
0 -11 5 -11 11 0 5 -5 7 -11 3 -6 -3 -25 4 -42 17 -23 16 -47 24 -88 25 -31 2
-60 0 -63 -3z"/>
<path d="M4865 7806 c-11 -8 -17 -17 -13 -21 10 -10 113 8 113 20 0 16 -78 17
-100 1z"/>
<path d="M8397 4090 c-3 -11 -1 -20 4 -20 5 0 9 9 9 20 0 11 -2 20 -4 20 -2 0
-6 -9 -9 -20z"/>
<path d="M6450 3655 c0 -8 5 -15 10 -15 6 0 10 7 10 15 0 8 -4 15 -10 15 -5 0
-10 -7 -10 -15z"/>
<path d="M6735 3340 c3 -5 8 -10 11 -10 2 0 4 5 4 10 0 6 -5 10 -11 10 -5 0
-7 -4 -4 -10z"/>
<path d="M6940 3229 c0 -5 5 -7 10 -4 6 3 10 8 10 11 0 2 -4 4 -10 4 -5 0 -10
-5 -10 -11z"/>
<path d="M5880 2832 c0 -10 33 -42 43 -42 14 0 7 23 -10 36 -21 16 -33 18 -33
6z"/>
<path d="M5846 2811 c-3 -5 1 -12 10 -15 20 -8 29 -1 19 13 -8 13 -22 14 -29
2z"/>
<path d="M5885 2752 c3 -7 1 -19 -5 -27 -15 -18 -6 -45 13 -45 8 0 20 7 27 16
11 13 9 19 -15 42 -15 15 -24 21 -20 14z"/>
<path d="M5830 2692 c0 -5 7 -15 15 -22 8 -7 15 -8 15 -2 0 5 -7 15 -15 22 -8
7 -15 8 -15 2z"/>
<path d="M5984 2681 c10 -10 26 -21 37 -24 18 -5 18 -3 7 11 -18 23 -30 32
-47 32 -11 0 -10 -4 3 -19z"/>
<path d="M5789 2663 c8 -29 31 -44 31 -20 0 26 -11 47 -25 47 -9 0 -11 -8 -6
-27z"/>
<path d="M5934 2665 c-15 -11 -17 -17 -8 -32 6 -10 18 -19 26 -21 22 -4 31 26
15 49 -12 16 -16 17 -33 4z"/>
<path d="M5820 2614 c0 -4 15 -23 33 -44 17 -20 37 -45 43 -56 7 -10 14 -17
17 -14 9 8 -65 120 -79 120 -8 0 -14 -3 -14 -6z"/>
<path d="M6000 2496 c0 -2 8 -10 18 -17 15 -13 16 -12 3 4 -13 16 -21 21 -21
13z"/>
<path d="M5958 2458 c12 -12 25 -18 29 -14 4 4 -1 14 -11 22 -31 22 -43 17
-18 -8z"/>
<path d="M6050 2449 c0 -17 37 -56 46 -47 3 3 -6 19 -20 34 -18 21 -25 24 -26
13z"/>
<path d="M6006 2423 c-3 -3 15 -30 41 -60 25 -29 48 -51 51 -49 2 3 -9 21 -27
41 -17 20 -31 42 -31 49 0 15 -24 28 -34 19z"/>
<path d="M6115 2260 c3 -5 8 -10 11 -10 2 0 4 5 4 10 0 6 -5 10 -11 10 -5 0
-7 -4 -4 -10z"/>
<path d="M9590 1050 c0 -5 5 -10 10 -10 6 0 10 5 10 10 0 6 -4 10 -10 10 -5 0
-10 -4 -10 -10z"/>
<path d="M9760 901 c0 -25 6 -27 13 -6 4 8 2 17 -3 20 -6 4 -10 -3 -10 -14z"/>
<path d="M8490 9320 c0 -5 5 -10 10 -10 6 0 10 5 10 10 0 6 -4 10 -10 10 -5 0
-10 -4 -10 -10z"/>
<path d="M6457 8856 c-4 -10 -5 -21 -2 -24 9 -9 17 6 13 25 -3 17 -4 17 -11
-1z"/>
<path d="M6421 8794 c0 -11 3 -14 6 -6 3 7 2 16 -1 19 -3 4 -6 -2 -5 -13z"/>
<path d="M5360 8716 c0 -9 13 -30 30 -48 l29 -33 -11 38 c-12 40 -48 72 -48
43z"/>
<path d="M5430 8672 c0 -5 7 -15 15 -22 8 -7 15 -8 15 -2 0 5 -7 15 -15 22 -8
7 -15 8 -15 2z"/>
<path d="M6716 7191 c-3 -5 3 -11 15 -14 16 -4 18 -3 8 9 -13 16 -16 17 -23 5z"/>
<path d="M8370 7100 c0 -5 5 -10 11 -10 5 0 7 5 4 10 -3 6 -8 10 -11 10 -2 0
-4 -4 -4 -10z"/>
<path d="M6674 6732 c-4 -31 -13 -56 -20 -59 -8 -3 -14 -12 -14 -20 0 -10 -6
-12 -20 -8 -11 3 -20 3 -20 -2 0 -4 -52 -7 -116 -5 -88 3 -125 0 -155 -12 -21
-9 -39 -13 -39 -10 0 4 -7 1 -15 -6 -9 -7 -34 -14 -56 -16 -36 -4 -69 -22 -69
-39 0 -3 -9 -16 -21 -28 -11 -12 -25 -31 -30 -42 -18 -37 -39 -70 -39 -61 0 5
-6 4 -12 -2 -25 -19 -142 -33 -179 -20 -51 17 -105 54 -130 88 -20 26 -89 80
-104 80 -3 0 3 -17 14 -38 34 -66 54 -149 41 -171 -8 -17 -7 -23 10 -33 26
-17 25 -22 -5 -36 -24 -11 -25 -16 -24 -94 0 -96 13 -158 37 -175 14 -12 14
-13 -5 -13 -17 0 -21 -5 -17 -24 5 -31 -15 -45 -31 -23 -7 10 -17 17 -24 17
-6 0 -11 9 -11 20 0 11 -7 20 -16 20 -9 0 -12 -5 -8 -12 5 -8 2 -9 -9 -5 -14
5 -16 2 -11 -18 6 -23 4 -25 -32 -25 -22 0 -34 4 -28 8 6 4 9 21 7 38 -4 25
-9 31 -24 27 -10 -3 -17 -9 -14 -13 3 -4 -3 -10 -13 -12 -13 -4 -25 4 -38 23
-21 31 -34 37 -34 15 0 -7 -7 -19 -15 -26 -12 -10 -15 -7 -21 14 -8 32 -26 35
-22 4 2 -13 -1 -25 -7 -28 -6 -3 -11 17 -13 48 -3 58 -13 66 -29 25 l-11 -28
-1 30 -2 30 -14 -25 c-8 -14 -14 -33 -15 -43 0 -37 -25 -9 -28 31 -2 23 -6 42
-10 42 -18 0 -63 -54 -61 -73 0 -12 1 -33 0 -46 -1 -19 -3 -21 -16 -11 -12 10
-15 6 -21 -29 -4 -23 -10 -44 -14 -46 -13 -8 15 -110 39 -147 l23 -33 -7 28
c-4 19 -2 26 5 22 5 -3 26 10 45 31 l35 37 6 -32 c4 -17 11 -34 17 -38 6 -4 8
2 5 15 -4 12 -2 22 3 22 5 0 9 9 9 19 0 16 8 19 43 20 23 0 56 3 72 5 109 16
257 17 350 3 55 -9 138 -19 185 -22 47 -3 103 -10 125 -15 51 -12 150 -12 245
1 76 10 128 14 320 24 57 3 106 8 109 10 2 3 9 1 15 -4 6 -5 25 -12 41 -14 63
-12 80 -17 83 -27 2 -6 11 -3 20 8 33 35 245 83 263 59 3 -5 16 8 27 27 12 20
32 40 46 46 13 5 27 13 30 18 3 6 15 8 26 5 12 -3 29 2 39 11 18 16 20 16 35
-6 9 -12 16 -30 16 -40 0 -9 5 -20 10 -23 6 -3 10 3 10 14 0 22 16 37 22 20 2
-5 11 -7 21 -3 10 4 16 13 13 21 -4 8 -1 11 5 8 6 -4 9 -1 8 6 -2 8 2 23 8 34
16 30 15 109 -2 141 -8 16 -16 27 -17 26 -7 -8 -58 22 -58 34 0 20 -21 29 -75
30 -30 0 -67 10 -93 23 -49 25 -47 25 -57 -9 -7 -22 -6 -23 9 -11 14 12 16 12
10 -2 -3 -8 -12 -18 -20 -21 -8 -3 -14 -12 -14 -21 0 -11 -9 -6 -30 15 -32 32
-56 40 -46 14 3 -9 6 -19 6 -24 0 -4 9 -6 20 -3 14 4 20 0 20 -12 0 -10 8 -24
18 -31 16 -12 15 -13 -5 -14 -13 0 -23 5 -23 10 0 6 -6 10 -13 10 -8 0 -19 10
-26 23 -9 18 -10 19 -6 2 6 -26 -33 -54 -46 -33 -5 7 -7 21 -5 30 5 21 -21 44
-57 50 -26 5 -28 4 -22 -23 7 -31 -20 -94 -35 -84 -6 4 -10 0 -10 -8 0 -18
-36 -64 -44 -57 -3 3 1 24 9 45 16 45 20 104 6 89 -5 -5 -11 -18 -14 -29 -3
-11 -5 -4 -6 18 0 20 -5 37 -11 37 -5 0 -10 -17 -11 -37 l0 -38 -13 48 c-14
51 -47 94 -84 108 -13 5 -31 22 -40 39 -19 33 -39 42 -21 9 10 -19 9 -20 -11
-14 -11 4 -26 2 -33 -3 -8 -7 -17 -7 -27 1 -19 15 -25 58 -7 54 6 -1 11 4 9
11 -1 8 7 16 18 19 11 3 20 9 20 14 0 5 17 32 37 61 35 49 37 56 41 142 3 70
0 96 -11 111 -15 19 -16 17 -23 -33z m-34 -504 c0 -39 -1 -41 -14 -23 -7 11
-17 40 -21 64 l-7 43 21 -21 c15 -15 21 -34 21 -63z m-914 36 c-3 -8 -2 -12 3
-9 5 3 13 0 17 -6 4 -8 9 -7 15 2 7 11 11 10 23 -6 18 -23 21 -39 6 -30 -6 3
-10 -4 -10 -17 l-1 -23 -12 23 c-8 13 -17 19 -22 13 -6 -5 -20 -12 -32 -16
-21 -6 -23 -3 -23 27 0 33 14 58 33 58 5 0 6 -7 3 -16z m1012 -19 c-3 -3 -9 2
-12 12 -6 14 -5 15 5 6 7 -7 10 -15 7 -18z m-118 -69 c0 -8 -5 -27 -11 -43 -7
-15 -11 -38 -10 -50 0 -14 -5 -23 -14 -23 -13 0 -14 10 -9 58 6 52 16 71 37
72 4 0 7 -6 7 -14z m80 -22 c0 -8 -4 -14 -10 -14 -5 0 -10 9 -10 21 0 11 5 17
10 14 6 -3 10 -13 10 -21z m-192 -9 c0 -14 -4 -28 -9 -31 -5 -3 -9 9 -9 25 0
17 4 31 9 31 5 0 9 -11 9 -25z m308 -12 c-10 -10 -19 5 -10 18 6 11 8 11 12 0
2 -7 1 -15 -2 -18z m208 -31 c-5 -22 -12 -32 -25 -32 -11 0 -19 -5 -19 -12 0
-6 -2 -9 -5 -6 -9 9 14 60 24 54 5 -3 11 4 14 16 9 33 18 16 11 -20z m-1151
-17 c-7 -21 -13 -19 -13 6 0 11 4 18 10 14 5 -3 7 -12 3 -20z m214 4 c8 -8 17
-7 32 3 17 10 25 10 41 0 11 -6 45 -13 76 -13 37 -1 72 -10 102 -25 26 -13 52
-24 58 -24 18 0 56 -38 50 -49 -3 -5 0 -12 6 -14 7 -3 2 -6 -12 -7 -14 0 -33
-7 -44 -15 -14 -11 -24 -12 -38 -4 -15 8 -23 7 -35 -8 -11 -14 -14 -15 -10 -2
4 13 -1 15 -31 9 -21 -4 -52 -15 -71 -24 -18 -10 -41 -16 -51 -13 -13 3 -17 0
-13 -9 4 -11 -6 -14 -44 -14 -27 0 -53 3 -57 7 -10 10 -33 14 -111 18 -38 1
-81 7 -95 13 -14 5 -28 8 -33 5 -4 -2 -17 -1 -30 3 -21 7 -21 7 -2 15 18 7 18
8 -5 9 -14 1 -19 4 -12 7 6 2 12 11 12 19 0 8 6 14 14 14 7 0 16 10 20 23 5
18 8 20 16 7 9 -13 11 -13 20 0 27 42 26 42 61 32 19 -5 43 -6 54 -2 11 4 26
3 33 -2 8 -7 12 -7 12 0 0 16 41 52 60 52 9 0 21 -5 27 -11z m567 -51 c-9 -14
-24 2 -24 25 1 21 1 21 15 3 8 -10 12 -23 9 -28z m58 20 c-7 -7 -12 -8 -12 -2
0 14 12 26 19 19 2 -3 -1 -11 -7 -17z m-952 -59 c0 -18 -4 -28 -10 -24 -6 4
-8 10 -5 15 3 5 1 11 -5 15 -15 9 -12 25 5 25 10 0 15 -10 15 -31z m-463 -11
c-3 -8 -6 -5 -6 6 -1 11 2 17 5 13 3 -3 4 -12 1 -19z m423 -4 c0 -8 -19 -13
-24 -6 -3 5 1 9 9 9 8 0 15 -2 15 -3z m-575 -104 c8 -16 15 -36 15 -45 0 -13
-3 -13 -20 -3 -13 9 -20 24 -20 45 0 41 5 41 25 3z"/>
<path d="M5628 6218 c-2 -6 -2 -25 0 -42 4 -27 6 -28 13 -11 11 28 11 65 0 65
-5 0 -11 -5 -13 -12z"/>
<path d="M5332 6155 c0 -16 2 -22 5 -12 2 9 2 23 0 30 -3 6 -5 -1 -5 -18z"/>
<path d="M5570 6153 c0 -8 -4 -11 -10 -8 -5 3 -10 -2 -10 -12 0 -11 -5 -24
-10 -29 -8 -8 -7 -14 3 -23 12 -9 16 -6 21 20 4 22 10 30 21 25 11 -4 15 1 15
18 0 13 -6 23 -15 23 -8 0 -15 -7 -15 -14z"/>
<path d="M5370 6131 c0 -12 5 -21 10 -21 6 0 10 6 10 14 0 8 -4 18 -10 21 -5
3 -10 -3 -10 -14z"/>
<path d="M7995 6089 c-4 -6 -5 -12 -2 -15 2 -3 7 2 10 11 7 17 1 20 -8 4z"/>
<path d="M5611 6044 c0 -11 3 -14 6 -6 3 7 2 16 -1 19 -3 4 -6 -2 -5 -13z"/>
<path d="M5550 6040 c0 -5 5 -10 11 -10 5 0 7 5 4 10 -3 6 -8 10 -11 10 -2 0
-4 -4 -4 -10z"/>
<path d="M7831 5904 c0 -11 3 -14 6 -6 3 7 2 16 -1 19 -3 4 -6 -2 -5 -13z"/>
<path d="M7290 5796 c0 -8 5 -18 10 -21 6 -3 10 3 10 14 0 12 -4 21 -10 21 -5
0 -10 -6 -10 -14z"/>
<path d="M7577 5783 c-11 -10 -8 -53 3 -53 6 0 10 14 10 30 0 31 -2 35 -13 23z"/>
<path d="M7630 5720 c0 -5 4 -10 9 -10 5 0 16 -3 25 -6 9 -3 16 -1 16 6 0 6
-4 8 -10 5 -5 -3 -10 -1 -10 4 0 6 -7 11 -15 11 -8 0 -15 -4 -15 -10z"/>
<path d="M7664 5675 c3 -9 0 -18 -7 -21 -18 -7 -12 -85 8 -96 8 -5 15 -16 15
-23 0 -8 7 -15 15 -15 8 0 15 5 15 11 0 5 -4 8 -9 5 -13 -8 -25 50 -22 107 1
30 -2 47 -10 47 -6 0 -8 -7 -5 -15z"/>
<path d="M5200 5661 c-8 -6 -17 -8 -22 -5 -12 8 -28 -33 -21 -53 4 -10 16 -25
28 -35 20 -16 20 -16 -7 -23 -34 -9 -36 -30 -5 -46 18 -9 20 -9 10 2 -18 18
-16 26 7 32 20 5 30 47 11 47 -5 0 -11 11 -13 24 -4 18 2 30 21 45 25 21 19
29 -9 12z"/>
<path d="M7592 5629 c1 -33 8 -41 25 -31 21 13 19 44 -4 53 -19 7 -22 5 -21
-22z"/>
<path d="M6505 5620 c-3 -5 -1 -10 4 -10 6 0 11 5 11 10 0 6 -2 10 -4 10 -3 0
-8 -4 -11 -10z"/>
<path d="M6045 5609 c-125 -10 -139 -13 -131 -34 3 -9 0 -15 -9 -15 -8 0 -15
5 -15 10 0 6 -4 10 -9 10 -4 0 -6 -12 -3 -26 6 -33 56 -64 102 -64 25 0 31 -3
20 -10 -11 -7 -9 -11 13 -19 16 -6 40 -11 54 -11 18 0 24 -4 20 -15 -4 -8 -2
-17 4 -21 6 -3 8 -12 5 -20 -3 -8 0 -14 7 -14 7 0 21 -11 32 -24 13 -15 25
-20 35 -16 8 5 36 19 63 31 26 13 50 32 53 41 3 9 11 15 19 12 7 -3 20 7 30
23 19 32 73 73 97 73 9 0 19 7 22 16 3 8 11 12 16 9 10 -6 49 31 50 47 1 25
-255 35 -475 17z m239 -74 c3 -9 0 -15 -9 -15 -8 0 -15 7 -15 15 0 8 4 15 9
15 5 0 11 -7 15 -15z"/>
<path d="M7341 5594 c0 -11 3 -14 6 -6 3 7 2 16 -1 19 -3 4 -6 -2 -5 -13z"/>
<path d="M4998 5485 c2 -14 8 -25 12 -25 14 0 19 27 7 39 -18 18 -25 13 -19
-14z"/>
<path d="M5145 5448 c-9 -23 -2 -83 10 -83 14 0 19 75 6 88 -7 7 -12 5 -16 -5z"/>
<path d="M5216 5386 c3 -9 11 -16 16 -16 13 0 5 23 -10 28 -7 2 -10 -2 -6 -12z"/>
<path d="M9260 5253 c0 -6 5 -15 10 -18 6 -3 19 -27 31 -52 11 -25 22 -43 24
-41 7 7 -29 95 -39 96 -5 0 -13 6 -17 14 -6 9 -9 9 -9 1z"/>
<path d="M5775 4960 c3 -5 8 -10 11 -10 2 0 4 5 4 10 0 6 -5 10 -11 10 -5 0
-7 -4 -4 -10z"/>
<path d="M10838 3833 c7 -3 16 -2 19 1 4 3 -2 6 -13 5 -11 0 -14 -3 -6 -6z"/>
</g>
</svg>
